<svg width="1440" height="489" viewBox="0 0 1440 489" fill="none" xmlns="http://www.w3.org/2000/svg">
<g clip-path="url(#clip0)">
<rect width="1440" height="489" fill="white"/>
<rect x="-130" y="26.0283" width="646" height="585" fill="url(#paint0_linear)"/>
<path fill-rule="evenodd" clip-rule="evenodd" d="M1895.86 -356.274C1952.79 -299.344 1952.79 -207.042 1895.86 -150.112L1125.86 619.888C1068.93 676.818 976.627 676.818 919.697 619.888C862.767 562.958 862.767 470.656 919.697 413.726L1689.7 -356.274C1746.63 -413.204 1838.93 -413.204 1895.86 -356.274Z" fill="url(#paint1_linear)"/>
<path fill-rule="evenodd" clip-rule="evenodd" d="M179.031 -215.002C208.319 -185.714 208.319 -138.228 179.031 -108.94L-158.969 229.06C-188.257 258.348 -235.743 258.348 -265.031 229.06C-294.319 199.772 -294.319 152.286 -265.031 122.998L72.9691 -215.002C102.257 -244.29 149.743 -244.29 179.031 -215.002Z" fill="url(#paint2_linear)"/>
<path fill-rule="evenodd" clip-rule="evenodd" d="M507.656 -340.551C559.781 -288.426 559.781 -203.915 507.656 -151.791L-93.8871 449.753C-146.012 501.877 -230.523 501.877 -282.647 449.753C-334.772 397.628 -334.772 313.117 -282.647 260.993L318.896 -340.551C371.021 -392.675 455.532 -392.675 507.656 -340.551Z" fill="url(#paint3_linear)"/>
<path fill-rule="evenodd" clip-rule="evenodd" d="M1661.77 -213.671C1699.07 -176.367 1699.07 -115.885 1661.77 -78.5809L1231.26 351.926C1193.95 389.231 1133.47 389.231 1096.17 351.926C1058.86 314.622 1058.86 254.14 1096.17 216.836L1526.67 -213.671C1563.98 -250.975 1624.46 -250.975 1661.77 -213.671Z" fill="url(#paint4_linear)"/>
<path fill-rule="evenodd" clip-rule="evenodd" d="M778.277 -272.949C821.343 -229.883 821.343 -160.059 778.277 -116.994L56.2769 605.006C13.2111 648.072 -56.6124 648.072 -99.6782 605.006C-142.744 561.941 -142.744 492.117 -99.6782 449.051L622.322 -272.949C665.388 -316.015 735.211 -316.015 778.277 -272.949Z" fill="url(#paint5_linear)"/>
<path fill-rule="evenodd" clip-rule="evenodd" d="M1266.23 325.362C1240.46 299.592 1240.46 257.812 1266.23 232.042L1476.19 22.0878C1501.96 -3.6817 1543.74 -3.6817 1569.51 22.0878C1595.28 47.8573 1595.28 89.6378 1569.51 115.407L1359.55 325.362C1333.78 351.131 1292 351.131 1266.23 325.362Z" fill="url(#paint6_linear)"/>
<path fill-rule="evenodd" clip-rule="evenodd" d="M2147.47 -389.194C2196.58 -340.085 2196.58 -260.463 2147.47 -211.354L1324.16 611.964C1275.05 661.073 1195.43 661.073 1146.32 611.964C1097.21 562.855 1097.21 483.233 1146.32 434.124L1969.63 -389.194C2018.74 -438.303 2098.37 -438.303 2147.47 -389.194Z" fill="url(#paint7_linear)"/>
<path fill-rule="evenodd" clip-rule="evenodd" d="M1068.98 -90.9492C1112.04 -47.8834 1112.04 21.9401 1068.98 65.0059L308.978 825.006C265.912 868.072 196.089 868.072 153.023 825.006C109.957 781.94 109.957 712.117 153.023 669.051L913.023 -90.9492C956.089 -134.015 1025.91 -134.015 1068.98 -90.9492Z" fill="url(#paint8_linear)"/>
<path fill-rule="evenodd" clip-rule="evenodd" d="M919.236 -54.6503C976.167 2.27973 976.167 94.5816 919.236 151.512L469.864 600.883C412.934 657.813 320.633 657.813 263.702 600.883C206.772 543.953 206.772 451.651 263.702 394.721L713.075 -54.6503C770.005 -111.58 862.306 -111.58 919.236 -54.6503Z" fill="url(#paint9_linear)"/>
<path fill-rule="evenodd" clip-rule="evenodd" d="M505.713 721.379C462.647 678.313 462.647 608.489 505.713 565.424L1246.46 -175.322C1289.52 -218.387 1359.35 -218.387 1402.41 -175.322C1445.48 -132.256 1445.48 -62.4323 1402.41 -19.3665L661.668 721.379C618.602 764.445 548.778 764.445 505.713 721.379Z" fill="url(#paint10_linear)"/>
<path fill-rule="evenodd" clip-rule="evenodd" d="M456.827 276.984C492.823 312.98 492.823 371.34 456.827 407.335L-162.306 1026.47C-198.302 1062.46 -256.662 1062.46 -292.658 1026.47C-328.653 990.473 -328.653 932.113 -292.658 896.118L326.476 276.984C362.471 240.989 420.832 240.989 456.827 276.984Z" fill="url(#paint11_linear)"/>
<path fill-rule="evenodd" clip-rule="evenodd" d="M770.276 174.866C733.448 138.037 733.448 78.3259 770.276 41.4972L1070.34 -258.561C1107.17 -295.39 1166.88 -295.39 1203.71 -258.561C1240.54 -221.733 1240.54 -162.022 1203.71 -125.193L903.645 174.866C866.816 211.695 807.105 211.695 770.276 174.866Z" fill="url(#paint12_linear)"/>
</g>
<defs>
<linearGradient id="paint0_linear" x1="193" y1="26.0283" x2="193" y2="595.437" gradientUnits="userSpaceOnUse">
<stop stop-color="#27A2F8"/>
<stop offset="1" stop-color="#1693C8" stop-opacity="0"/>
</linearGradient>
<linearGradient id="paint1_linear" x1="1033.03" y1="-287.192" x2="637.778" y2="108.063" gradientUnits="userSpaceOnUse">
<stop stop-color="#0FC6FD"/>
<stop offset="1" stop-color="#1D92ED"/>
</linearGradient>
<linearGradient id="paint2_linear" x1="-22.1537" y1="-341.394" x2="-381" y2="-3.39437" gradientUnits="userSpaceOnUse">
<stop stop-color="#DD62B4"/>
<stop offset="1" stop-color="#AC55CF"/>
</linearGradient>
<linearGradient id="paint3_linear" x1="149.604" y1="-565.492" x2="-489.039" y2="36.0509" gradientUnits="userSpaceOnUse">
<stop stop-color="#5074F5"/>
<stop offset="1" stop-color="#5C87F4"/>
</linearGradient>
<linearGradient id="paint4_linear" x1="1319.99" y1="-183.333" x2="1576.76" y2="-440.107" gradientUnits="userSpaceOnUse">
<stop stop-color="#30B3FC"/>
<stop offset="1" stop-color="#2F96F9"/>
</linearGradient>
<linearGradient id="paint5_linear" x1="383.828" y1="-578.236" x2="-382.701" y2="143.764" gradientUnits="userSpaceOnUse">
<stop stop-color="#21AAF7"/>
<stop offset="1" stop-color="#1480E8"/>
</linearGradient>
<linearGradient id="paint6_linear" x1="1502.27" y1="508.038" x2="1781.68" y2="228.62" gradientUnits="userSpaceOnUse">
<stop stop-color="#26ACF8"/>
<stop offset="1" stop-color="#1480E8"/>
<stop offset="1" stop-color="#1689E8"/>
</linearGradient>
<linearGradient id="paint7_linear" x1="1697.67" y1="-737.322" x2="823.578" y2="85.9962" gradientUnits="userSpaceOnUse">
<stop stop-color="#21AAF7"/>
<stop offset="1" stop-color="#1480E8"/>
</linearGradient>
<linearGradient id="paint8_linear" x1="657.873" y1="-416.408" x2="-149" y2="343.592" gradientUnits="userSpaceOnUse">
<stop stop-color="#37CFFF"/>
<stop offset="1" stop-color="#5371F5"/>
</linearGradient>
<linearGradient id="paint9_linear" x1="448.045" y1="-115.373" x2="-134.638" y2="433.461" gradientUnits="userSpaceOnUse">
<stop stop-color="#30BFFC"/>
<stop offset="1" stop-color="#2F96F9"/>
</linearGradient>
<linearGradient id="paint10_linear" x1="1293.42" y1="652.456" x2="1651.34" y2="294.531" gradientUnits="userSpaceOnUse">
<stop offset="0.28125" stop-color="#1D89ED"/>
<stop offset="1" stop-color="#0FC6FD"/>
</linearGradient>
<linearGradient id="paint11_linear" x1="-201.555" y1="334.591" x2="-500.718" y2="633.755" gradientUnits="userSpaceOnUse">
<stop stop-color="#1DA2ED"/>
<stop offset="1" stop-color="#0FC6FD"/>
</linearGradient>
<linearGradient id="paint12_linear" x1="1033.37" y1="156.639" x2="831.49" y2="358.519" gradientUnits="userSpaceOnUse">
<stop stop-color="#30B3FC"/>
<stop offset="1" stop-color="#2F96F9"/>
</linearGradient>
<clipPath id="clip0">
<rect width="1440" height="489" fill="white"/>
</clipPath>
</defs>
</svg>
