<svg xmlns="http://www.w3.org/2000/svg" xmlns:xlink="http://www.w3.org/1999/xlink">
  <symbol id="smile" viewBox="0 0 27.7 28">
<circle fill="#FFA800" stroke="#FFFFFF" stroke-width="1.7162" cx="13.8" cy="14.1" r="12.9"/>
    <path fill="#FFFFFF" stroke="#FFFFFF" stroke-width="0.3998" d="M20.6,11.6c-0.2,0.2-0.4,0.2-0.6,0.2s-0.4-0.1-0.6-0.2
	c-0.4-0.4-1-0.4-1.4,0c-0.3,0.3-0.9,0.3-1.2,0H20.6z M20.6,11.6c0.3-0.3,0.3-0.9,0-1.2c-1-1-2.8-1-3.8,0L20.6,11.6z"/>
    <path fill="#FFFFFF" stroke="#FFFFFF" stroke-width="0.3998" d="M6,16.8L6,16.8L6,16.8c-0.3,0.3-0.3,0.9,0,1.2
	c2.2,2.2,5,3.2,7.8,3.2s5.6-1.1,7.8-3.2c0.3-0.3,0.3-0.9,0-1.2c-0.3-0.3-0.9-0.3-1.2,0c-3.6,3.6-9.6,3.6-13.2,0l0,0
	C6.9,16.5,6.3,16.5,6,16.8z"/>
    <path fill="#FFFFFF" stroke="#FFFFFF" stroke-width="0.3998" d="M10.6,11.5l0.1,0.1c0.3-0.3,0.3-0.9,0-1.2l0,0
	c-0.5-0.5-1.2-0.8-1.9-0.8s-1.4,0.3-1.9,0.8c-0.3,0.3-0.3,0.9,0,1.2s0.9,0.3,1.2,0L8,11.5l0.1,0.1c0.2-0.2,0.4-0.3,0.7-0.3
	s0.5,0.1,0.7,0.3s0.4,0.2,0.6,0.2c0.2,0,0.4-0.1,0.6-0.3H10.6z M10.6,11.5c-0.1,0.1-0.3,0.2-0.5,0.2s-0.3-0.1-0.5-0.2
	c-0.2-0.2-0.5-0.3-0.8-0.3S8.2,11.3,8,11.5c-0.3,0.3-0.7,0.3-0.9,0c-0.3-0.3-0.3-0.7,0-0.9c0.5-0.5,1.1-0.7,1.8-0.7s1.3,0.3,1.8,0.7
	C10.9,10.8,10.9,11.2,10.6,11.5z"/>
</symbol>
  <symbol id="russian-flag" viewBox="0 0 23.2 23.5" >
<g>
	<defs>
		<ellipse id="SVGID_1_" cx="11.7" cy="11.9" rx="10.8" ry="11"/>
	</defs>
  <clipPath id="SVGID_2_">
		<use xlink:href="#SVGID_1_"  overflow="visible"/>
	</clipPath>
  <path clip-path="url(#SVGID_2_)" fill="#FE0101" d="M22,15.3L1.2,15.5l0.6,1.1c1.8,3.7,5.6,6,9.7,6l1.5-0.1
		C17.1,22.2,20.7,19.4,22,15.3L22,15.3z"/>
  <path clip-path="url(#SVGID_2_)" fill="#01017E" d="M22,8.4l-20.9,0c-0.2,0.8-0.4,1-0.4,2.3l0,2.3c0.2,1.2,0.1,1.8,0.7,2.4l20.6,0
		c0.3-1.1,0.5-0.8,0.5-2.1l0.1-2.9C22.2,9.3,22.4,8.7,22,8.4z"/>
  <path clip-path="url(#SVGID_2_)" fill="#FFFFFF" d="M22.1,8.3c-1.3-3.1-3.5-5.3-7.8-7.2l-3.8-0.3L7.7,1.3C4.1,3.2,3.3,3.8,1,8.3
		L0.4,8.4"/>
</g>
    <circle fill="none" stroke="#C4C4C4" stroke-width="0.5" stroke-linecap="square" stroke-linejoin="round" cx="11.6" cy="11.7" r="11"/>
</symbol>
  <symbol id="snowflake" viewBox="0 0 148 44">
<path fill="#FFFFFF" d="M0.7,37.6c0-3.8,2.9-6.4,7.4-6.4c1.8,0,3.9,0.5,4.6,0.8c0.4,0.2,0.8,0,1-0.3l0.3,0.2l-1.5,3.4
	c-1.1-0.6-2.9-0.9-4.3-0.9c-2.5,0-4,1.2-4,3.2c0,2.1,1.9,3.5,4.7,3.5c1.5,0,3.1-0.4,3.7-1l1.3,2.7c-1.8,0.8-3.5,1.2-5.8,1.2
	C3.6,44,0.7,41.5,0.7,37.6z"/>
    <path fill="#FFFFFF" d="M27.9,31.4v0.4c-0.4,0-0.8,0.3-0.8,0.8v11.3h-3.4v-4.4c-0.8,0.3-1.8,0.4-2.8,0.4c-3.2,0-5.1-2-5.1-5.4v-1.9
	c0-0.4-0.3-0.8-0.7-0.8v-0.4h4.1v2.7c0,1.9,0.8,2.9,2.2,2.9c0.8,0,1.6-0.2,2.4-0.5v-5.1H27.9z"/>
    <path fill="#FFFFFF" d="M44.4,43.4v0.4h-4.5L39,41.4h-5.2l-0.8,2.5h-3.8v-0.4c0.6-0.1,1-0.5,1.3-1.3l3.5-9.6c0.1-0.5,0-0.7-0.3-0.7
	v-0.4h5.3l4.4,11.3C43.4,43.2,43.8,43.4,44.4,43.4z M38.1,39L36.3,34L34.6,39H38.1z"/>
    <path fill="#FFFFFF" d="M44,37.6c0-3.8,2.9-6.3,7.4-6.3c1.8,0,3.9,0.5,4.6,0.8c0.4,0.2,0.8,0,1-0.3l0.3,0.2l-1.5,3.4
	c-1.1-0.6-2.9-0.9-4.3-0.9c-2.5,0-4,1.2-4,3.2c0,2.1,1.9,3.5,4.7,3.5c1.5,0,3.1-0.4,3.7-1l1.3,2.7c-1.8,0.8-3.5,1.2-5.8,1.2
	C47,44,44,41.5,44,37.6z"/>
    <path fill="#FFFFFF" d="M71.1,35.1h-0.4c0-0.5-0.3-0.8-0.7-0.8h-3.4v8.4c0,0.5,0.3,0.8,0.7,0.8v0.4h-4.1v-9.5h-3.4
	c-0.5,0-0.7,0.3-0.7,0.8h-0.4v-3.7h12.4L71.1,35.1L71.1,35.1z"/>
    <path fill="#FFFFFF" d="M73.2,32.6c0-0.4-0.3-0.8-0.8-0.8v-0.4h4.1v4.4h4c2.5,0,4.3,1.7,4.3,4c0,2.3-1.8,4-4.3,4h-7.4V32.6z
	 M80,41.2c1.1,0,1.8-0.5,1.8-1.3c0-0.8-0.7-1.4-1.8-1.4h-3.4v2.7L80,41.2L80,41.2z"/>
    <path fill="#FFFFFF" d="M98.3,40.2v3.7H87.1V32.6c0-0.5-0.3-0.8-0.8-0.8v-0.4H98V35h-0.4c0-0.5-0.3-0.8-0.7-0.8h-6.5v2h5.1v2.6h-5.1
	V41h6.8c0.4,0,0.7-0.3,0.7-0.8L98.3,40.2L98.3,40.2z"/>
    <path fill="#FFFFFF" d="M116.4,31.8c-0.5,0-0.7,0.3-0.7,0.8v11.3h-3.4v-7.8l-4.1,6.9l-4.2-6.8v7.8h-3V32.6c0-0.5-0.3-0.8-0.7-0.8
	v-0.4h4.6l3.4,5.6l3.5-5.6h4.7L116.4,31.8L116.4,31.8z"/>
    <path fill="#FFFFFF" d="M14.8,22.2c0,2.5-2.7,3.8-6.5,3.8c-2.1,0-4.5-0.7-6.4-2.5l2-2.2C5.1,22.6,6.7,23,8.3,23
	c1.7,0,2.9-0.4,2.9-1.2c0-0.7-0.6-1-2.6-1H5.9v-2.6h2.7c1.8,0,2.4-0.2,2.4-0.8c0-0.8-1.2-1.2-2.9-1.2c-1.6,0-2.9,0.4-4,1.4l-2.2-2.8
	l0.3-0.2c0.4,0.4,0.5,0.5,1.1,0.1c1.2-0.8,3-1.4,5-1.4c3.3,0,6.1,1.3,6.1,3.4c0,1.1-0.8,2.2-2,2.7C13.8,19.8,14.8,20.9,14.8,22.2z"
    />
    <path fill="#FFFFFF" d="M30.3,25.5v0.4h-4.5l-0.9-2.5h-5.2l-0.8,2.5H15v-0.4c0.6-0.1,1-0.5,1.3-1.3l3.5-9.6c0.1-0.5,0-0.7-0.3-0.7
	v-0.4h5.3l4.4,11.3C29.3,25.2,29.7,25.5,30.3,25.5z M24.1,21L22.2,16L20.5,21H24.1L24.1,21z"/>
    <path fill="#FFFFFF" d="M31.8,14.6c0-0.5-0.3-0.8-0.8-0.8v-0.4h8.1c2.5,0,4.3,1.6,4.3,4c0,2.3-1.8,4-4.3,4h-4v4.4h-3.4L31.8,14.6
	L31.8,14.6z M38.6,18.8c1.2,0,1.8-0.4,1.8-1.4c0-0.9-0.5-1.3-1.8-1.3h-3.4v2.7H38.6z"/>
    <path fill="#FFFFFF" d="M58.3,13.4v0.4c-0.5,0-0.8,0.3-0.8,0.8v11.3h-3.4v-4.5h-2l-3.2,4.5h-4.4v-0.4c0.4,0,0.9-0.3,1.2-0.8l2.7-3.7
	c-1.7-0.6-2.8-1.9-2.8-3.6c0-2.3,1.9-3.9,4.7-3.9L58.3,13.4L58.3,13.4z M54.2,16.1h-3.1c-1.2,0-1.9,0.5-1.9,1.4
	c0,0.8,0.5,1.3,1.7,1.3h3.3V16.1L54.2,16.1z"/>
    <path fill="#FFFFFF" d="M79.3,25.5v0.4h-4.2l-4-5.7v4.3c0,0.6,0.3,0.9,0.7,0.9v0.4H67v-0.4c0.5,0,0.7-0.3,0.7-0.9v-4.2l-4,5.6h-4.2
	v-0.4c0.4,0,0.9-0.3,1.2-0.8l3.8-5.4l-3.2-4.4c-0.5-0.7-1.1-1-1.8-1v-0.4h4.2l3.9,5.3v-4c0-0.6-0.3-0.9-0.7-0.9v-0.4h4.8v0.4
	c-0.5,0-0.7,0.3-0.7,0.9v4.1l3.9-5.4h4.2v0.4c-0.7,0-1.2,0.3-1.8,1l-3.2,4.4l3.8,5.4C78.5,25.2,78.9,25.5,79.3,25.5z"/>
    <path fill="#FFFFFF" d="M95,25.5v0.4h-4.5l-0.9-2.5h-5.2l-0.8,2.5h-3.9v-0.4c0.6-0.1,1-0.5,1.3-1.3l3.5-9.6c0.1-0.5,0-0.7-0.3-0.7
	v-0.4h5.3l4.4,11.3C94,25.2,94.4,25.5,95,25.5z M88.7,21L86.9,16L85.2,21H88.7L88.7,21z"/>
    <path fill="#FFFFFF" d="M107.6,22.2v3.7H96.4V14.6c0-0.5-0.3-0.8-0.8-0.8v-0.4h11.7V17H107c0-0.5-0.3-0.8-0.7-0.8h-6.5v2h5.1v2.6
	h-5.1V23h6.8c0.4,0,0.7-0.3,0.7-0.8H107.6z"/>
    <path fill="#FFFFFF" d="M125.7,13.9c-0.5,0-0.7,0.3-0.7,0.8v11.3h-3.4v-7.8l-4.1,6.9l-4.2-6.8v7.8h-3V14.6c0-0.5-0.3-0.8-0.7-0.8
	v-0.4h4.6l3.4,5.6l3.5-5.6h4.7V13.9z"/>
    <path fill="#FFFFFF" d="M139,8.8h8.2L146,6.8h-5.9L139,8.8z"/>
    <path fill="#FFFFFF" d="M142.2,9.7l1.1,2.1h2.7l1.2-2.1H142.2z"/>
    <path fill="#FFFFFF" d="M137.6,9.7h-8.2l1.2,2.1h5.9L137.6,9.7z"/>
    <path fill="#FFFFFF" d="M133.2,6.8h-2.7l-1.2,2.1h5L133.2,6.8z"/>
    <path fill="#FFFFFF" d="M142.8,5.9l1.4-2.5l-1.1-2.1l-2.5,4.6H142.8z"/>
    <path fill="#FFFFFF" d="M138.3,10.1l-4.1,7.5h2.3l3-5.5L138.3,10.1z"/>
    <path fill="#FFFFFF" d="M133.7,12.6l-1.4,2.5l1.1,2.1l2.5-4.6H133.7z"/>
    <path fill="#FFFFFF" d="M137.6,8.8l-4.1-7.5l-1.1,2.1l3,5.4H137.6z"/>
    <path fill="#FFFFFF" d="M138.7,15.1l1.3,2.5h2.3l-2.5-4.6L138.7,15.1z"/>
    <path fill="#FFFFFF" d="M139,9.7l4.1,7.5l1.1-2.1l-3-5.4H139z"/>
    <path fill="#FFFFFF" d="M142.4,0.9h-2.3l-1.8,3.3l-1.8-3.3h-2.3l4.1,7.5L142.4,0.9z"/>
</symbol>
  <symbol id="skin-1" viewBox="0 0 77 77">
<path fill="#3A91F5" d="M38.5,76.4c21,0,38-17,38-38s-17-38-38-38s-38,17-38,38S17.5,76.4,38.5,76.4z"/>
    <path fill="#00C0F3" d="M16.7,33.3l43.6-43.6L16.7,33.3z"/>
    <path fill="#57CBF5" d="M55.6,4.5C54,3.9,49.1,7,49.1,7L13.9,48.4c-1.3,1.5-2.1,2.8-3.6,7.4l-1.5,6.3l4.5,5.2c6,4.6,13,7.9,20.5,8.7
	c2.2,0.2,11,1.2,0.6,0l4,0.3c0.3,0,0.5,0,0.8,0l4.5-0.3l32.7-38.7c0,0,0-10.2-5.5-18.7C66.7,12,59.8,5.8,55.6,4.5z"/>
    <path fill="#57CBF5" d="M7.4,26.8l-1.2,2.6c-1.5,4.5-0.2,9,3,12.4c0.7,0.8,1.9,0.9,2.6,1.3c2.6,1.2,5.6,1.3,8.3,0.3l0,0L58.2,5.7
	L52.3,3c-1.7-0.7-2.1-0.8-4.2-1.4c0,0-1.3-0.3-1.3-0.3c-3-0.6-4-0.9-10.2-0.9l-3.1,0.4"/>
    <path fill="#F55460" d="M63.5,28.3c-1.2-8.9-7.5-12.5-13-13c-4.2-0.4-8.1,1-10.9,3.4c-2.8-2.4-6.7-3.7-10.9-3.4
	c-5.5,0.5-11.8,4.1-13,13c-1,7.4,2.6,14.9,10.6,21.7c5.6,4.8,11.4,7.7,11.7,7.8c0.5,0.2,1,0.4,1.6,0.4c0.5,0,1.1-0.1,1.6-0.4
	c0.2-0.1,6.1-3,11.7-7.8C60.9,43.2,64.6,35.7,63.5,28.3z"/>
    <path fill="#D71D2A" d="M62.5,28.3c-1.2-8.9-7.5-12.5-13-13c-3.7-0.3-7.2,0.7-9.8,2.6c2.9,2,5.2,5.4,5.9,10.4
	C46.6,35.7,43,43.2,35,50c-1.6,1.4-3.3,2.6-4.8,3.7c3.7,2.6,6.7,4,6.9,4.1c0.5,0.2,1,0.4,1.6,0.4c0.5,0,1.1-0.1,1.6-0.4
	c0.2-0.1,6.1-3,11.7-7.8C59.9,43.2,63.6,35.7,62.5,28.3z"/>
    <path fill="#D62D2D" d="M33,64.9l6.7-6.7l6.7,6.7H33z"/>
    <line fill="none" stroke="#B3EFFF" stroke-width="1.1045" x1="40.4" y1="58.4" x2="40.4" y2="76.4"/>
</symbol>
  <symbol id="skin-2" viewBox="0 0 85.3 84.7">
<circle fill="#6F55DD" cx="42.6" cy="42.4" r="42"/>
    <path fill="#44C0FF" d="M18.7,31.2l41-8.9c1.6-0.4,3.2,0.7,3.6,2.3L68.8,50c0.4,1.6-0.7,3.2-2.3,3.6l-41,8.9
	c-1.6,0.4-3.2-0.7-3.6-2.3l-5.5-25.4C16,33.1,17,31.6,18.7,31.2z"/>
    <rect x="18.5" y="32.4" transform="matrix(0.9774 -0.2115 0.2115 0.9774 -6.8619 5.6561)" fill="#FFFFFF" width="9" height="5"/>
    <path fill="#3D309B" d="M17.7,31.4c-0.5-2.2,0.9-4.3,3.1-4.8l1-0.2c2.2-0.5,4.3,0.9,4.8,3.1l0,0L17.7,31.4L17.7,31.4z"/>
    <path fill="#FFFFFF" d="M17.6,40.6l46.9-10.2L68.8,50c0.4,1.6-0.7,3.2-2.3,3.6l-41,8.9c-1.6,0.4-3.2-0.7-3.6-2.3L17.6,40.6z"/>
    <circle fill="#6F54DF" cx="42.2" cy="43" r="13.5"/>
    <circle fill="#3E2F9B" cx="42.2" cy="43" r="10.5"/>
    <circle fill="#3D309B" cx="57.9" cy="27.7" r="2.2"/>
    <path fill="#F55460" d="M50.1,39.5c-1.1-3-3.5-3.8-5.5-3.5c-1.5,0.2-2.7,0.9-3.5,2c-1.1-0.6-2.6-0.8-4-0.4c-1.9,0.6-3.8,2.3-3.5,5.5
	c0.2,2.6,2,5,5.3,6.7c2.3,1.3,4.5,1.8,4.6,1.8c0.2,0,0.4,0,0.6,0c0.2,0,0.4-0.1,0.5-0.2c0.1-0.1,1.9-1.5,3.5-3.6
	C50.3,44.8,51,41.9,50.1,39.5z"/>
    <path fill="#D71D2A" d="M50.1,39.5c-1.1-3-3.5-3.8-5.5-3.5c-1.3,0.2-2.4,0.8-3.2,1.6c1.1,0.5,2.2,1.5,2.8,3.2c0.9,2.5,0.2,5.4-2,8.3
	c-0.5,0.6-0.9,1.2-1.4,1.6c1.5,0.6,2.6,0.9,2.7,0.9c0.2,0,0.4,0,0.6,0c0.2,0,0.4-0.1,0.5-0.2c0.1-0.1,1.9-1.5,3.5-3.6
	C50.3,44.8,51,41.9,50.1,39.5z"/>
    <path fill="#FFFFFF" d="M48.4,13.5c0,0,0.9,2.5,3.8,4.3c2.9,1.8,5.5,1.7,5.5,1.7s-2.5,0.9-4.3,3.8s-1.7,5.5-1.7,5.5
	s-0.9-2.5-3.8-4.3c-2.9-1.8-5.5-1.7-5.5-1.7s2.5-0.9,4.3-3.8C48.6,16.1,48.4,13.5,48.4,13.5z"/>
    <path fill="#FFFFFF" d="M37.6,63.9c0,0,0.5,1.4,2.2,2.5s3.2,1,3.2,1s-1.4,0.5-2.5,2.2s-1,3.2-1,3.2s-0.5-1.4-2.2-2.5s-3.2-1-3.2-1
	s1.4-0.5,2.5-2.2C37.7,65.5,37.6,63.9,37.6,63.9z"/>
</symbol>
  <symbol id="skin-3" viewBox="0 0 84.8 85">
<g>
	<path fill="#1A64F5" d="M30.8,82.9c22.3,6.4,45.6-6.5,51.9-28.8c6.4-22.3-6.5-45.6-28.8-51.9C31.6-4.3,8.3,8.6,2,30.9
		C-4.4,53.2,8.5,76.5,30.8,82.9z"/>
  <path fill="#0045F5" d="M45.3,26.3l3.1,0.9l-1.3,4.7l-3.1-1L45.3,26.3z"/>
  <path fill="#2246A2" d="M46.8,26.7l1.6,0.4l-1.3,4.7l-1.6-0.4L46.8,26.7z"/>
  <path fill="#F0D0AB" d="M26.1,41c-0.8,2.9-1.6,5.8-2.5,8.7c-1.1-0.4-2.1-0.9-2.5-2c-0.4-0.9-0.3-1.9-0.1-2.8
		c0.1-0.8,0.3-1.5,0.5-2.3c0.3-1.2,0.9-1.7,2.2-1.8C24.5,40.7,25.3,40.8,26.1,41z"/>
  <path fill="#E9C9A4" d="M56.9,49.8c-0.8,2.9-1.7,5.8-2.5,8.7c1.1,0.2,2.2,0.3,3.2-0.4c0.8-0.6,1.2-1.5,1.6-2.3
		c0.3-0.7,0.5-1.5,0.7-2.2c0.4-1.2,0.1-1.9-0.9-2.7C58.4,50.4,57.7,50,56.9,49.8z"/>
  <path fill="#FAE0BD" d="M54.7,57.5c-2.4,8.5-11.3,13.4-19.8,11s-13.4-11.3-11-19.8c2.3-8.2,3.8-13.5,4.9-17.3
		c5.6-1.5,26.8,4.5,30.8,8.8C58.5,44,57.1,49,54.7,57.5z"/>
  <path fill="#F0D0AB" d="M54.7,57.5c-2.4,8.5-11.3,13.4-19.8,11c-1-0.3-1.9-0.7-2.8-1.1c6.7,1.9,15.3-2.6,17.8-11.3
		c2.3-8.2,4.3-14.9,5.4-18.7c2,1,3.6,1.9,4.4,2.8C58.5,44,57.1,49,54.7,57.5z"/>
  <path fill="#AD5A38" d="M27.9,31.1l5.1,0.4l-5.9,9.8l-1-0.3L27.9,31.1z"/>
  <path fill="#AD5A38" d="M60.6,40.4l-4.5-2.3L56,49.5l1,0.3L60.6,40.4z"/>
  <path fill="none" stroke="#E25520" stroke-width="2" stroke-linecap="round" d="M35.9,54.2c0,0,0.3,2.2,2.3,2.7
		c2.1,0.6,3.4-1.1,3.4-1.1"/>
  <ellipse transform="matrix(0.2749 -0.9615 0.9615 0.2749 -19.724 66.8513)" fill="#484346" cx="34.5" cy="46.5" rx="2" ry="1.5"/>
  <ellipse transform="matrix(0.2749 -0.9615 0.9615 0.2749 -14.1279 81.3759)" fill="#484346" cx="46.9" cy="50.1" rx="2" ry="1.5"/>
  <path fill="#D71D2A" d="M55,12.8c-1.9-0.5-3.9,0-5.4,1.3c-1,0.8-1.8,2.1-2.3,3.5L47,18.9l10.4,3c3.2,0.9,6.6-1.2,7.6-4.8l0.4-1.3
		L55,12.8z"/>
  <path fill="#F55460" d="M57.3,11.4c-2.2-0.6-4.4-0.1-6,1.1c-1.1,0.8-2,2-2.4,3.4l-0.4,1.3l11.9,3.4c3.6,1,9.1-0.8,10.4-5.4
		L57.3,11.4z"/>
  <path fill="#0045F5" d="M45.2,27.3l3.1,0.9L47,32.9L43.9,32L45.2,27.3z"/>
  <path fill="#2246A2" d="M46.7,27.7l1.6,0.4L47,32.8l-1.6-0.4L46.7,27.7z"/>
  <path fill="#9EF569" d="M63,42.9L61.5,48L23.4,37.1l1.4-5.1c3-10.4,14-16.5,24.5-13.5S66,32.5,63,42.9z"/>
  <path fill="#9EF569" d="M59.1,56.6l-3.3,11.5l-21.4,2.2l-17-13.2l3.3-11.5l16.5,15.1L59.1,56.6z"/>
  <path fill="#49B125" d="M63,42.9L61.5,48l-19.1-5.5l6.9-24C59.8,21.5,66,32.5,63,42.9z"/>
  <path fill="#49B125" d="M37.1,60.7l22-4.1l-3.3,11.5l-21.4,2.2L37.1,60.7z"/>
  <path fill="#6FDF47" d="M48.2,22.4l-26.1,7l-2.6,9l21.2,10.2L64,51.2l2.6-9L48.2,22.4z"/>
  <path fill="#49B125" d="M66.7,42.1l-2.6,9l-23.3-2.6l7.5-26.2L66.7,42.1z"/>
  <path fill="#36CC29" d="M66.7,42.1l-2.6,9l-23.3-2.6l7.5-26.2L66.7,42.1z"/>
  <path fill="#1A64F5" d="M45.4,25.9l3.4,1l-4.9,17.2l-3.4-1L45.4,25.9z"/>
  <path fill="#2246A2" d="M50.6,33.4l3.4,1l-3,10.3l-3.4-1L50.6,33.4z"/>
  <path fill="#2246A2" d="M55.6,42l3.4,1l-1,3.4l-3.4-1L55.6,42z"/>
  <path fill="#1A64F5" d="M36.9,29.5l3.4,1l-3,10.3l-3.4-1L36.9,29.5z"/>
  <path fill="#1A64F5" d="M28.2,34.1l3.4,1l-1,3.4l-3.4-1L28.2,34.1z"/>
  <path fill="#2246A2" d="M47.1,26.4l1.7,0.5l-4.9,17.2l-1.7-0.5L47.1,26.4z"/>
  <path fill="#FFFFFF" d="M72.9,27.3c0,0-0.2,1.4,0.7,3c0.9,1.6,2.2,2.2,2.2,2.2s-1.4-0.2-3,0.7s-2.2,2.2-2.2,2.2s0.2-1.4-0.7-3
		c-0.9-1.6-2.2-2.2-2.2-2.2s1.4,0.2,3-0.7C72.3,28.6,72.9,27.3,72.9,27.3z"/>
  <path fill="#FFFFFF" d="M12.3,39.1c0,0-0.3,2.1,1,4.4c1.3,2.4,3.2,3.2,3.2,3.2s-2.1-0.3-4.4,1C9.7,49.1,8.9,51,8.9,51
		s0.3-2.1-1-4.4c-1.3-2.4-3.2-3.2-3.2-3.2s2.1,0.3,4.4-1C11.4,41,12.3,39.1,12.3,39.1z"/>
</g>
</symbol>
  <symbol id="skin-4" viewBox="0 0 84.7 84.6">
<g>

		<linearGradient id="SVGID_1_" gradientUnits="userSpaceOnUse" x1="33.4002" y1="758.3624" x2="51.4998" y2="840.4625" gradientTransform="matrix(1 0 0 1 0 -757.0624)">
		<stop  offset="0" style="stop-color:#3CD4F4"/>
      <stop  offset="1" style="stop-color:#1E80D3"/>
	</linearGradient>
  <path fill="url(#SVGID_1_)" d="M51.5,83.4c22.7-5,37-27.4,32-50.1s-27.4-37-50.1-32s-37,27.4-32,50.1S28.8,88.4,51.5,83.4z"/>
  <g>
		<path fill="#FDD7BD" d="M55.5,20.2c-0.1-0.5-0.2-0.9-0.3-1.4c-0.3-1.5,0.7-2.9,2.1-3.2c1.5-0.3,2.9,0.6,3.3,2.1L65,37.4l1.6-3
			c1.1-2,3.6-2.7,5.6-1.7l1,0.5l-4.4,17c-0.8,2.6-2.9,4.6-5.6,5.2l-8.8,1.9c-2.3,0.5-4.7-0.5-6.5-2.2c-2.1-2-3.4-10-4.4-14.1
			c-0.6-2.9,6.7-5.9,4-5.5l-3.5-16c-0.3-1.5,0.6-3,2.1-3.3l0,0c1.5-0.3,3,0.6,3.3,2.1l-0.5-2.2c-0.3-1.5,0.6-3,2.1-3.3h0.1
			c1.5-0.3,3,0.6,3.3,2.1l0.9,3.9l0,0L55.5,20.2z"/>
    <path fill="#FDD7BD" d="M39.9,26.5c-0.1-1.4,0.8-2.6,2.2-2.9h0.1c1.5-0.3,3,0.6,3.3,2.1l2.2,9.9c-0.1,0-0.3,0-0.4,0.1
			c-1.6,0.3-3.2,1.4-4.6,3l0,0l0,0c-1-4.7-2-9.1-2.6-11.7C39.9,26.8,39.9,26.6,39.9,26.5z"/>
    <path fill="#FDD7BD" d="M38.9,26.7c0,0.1,0,0.2,0.1,0.4c0.6,2.6,1.5,7.1,2.6,11.7l0,0c-2-0.9-3.8-1.2-5.4-0.8
			c-0.1,0-0.3,0.1-0.4,0.1l-2.2-9.8c-0.3-1.5,0.6-3,2.1-3.3h0.1C37.1,24.7,38.4,25.4,38.9,26.7z"/>
    <path fill="#FDD7BD" d="M26.8,23.4c-0.3-1.5,0.6-3,2.1-3.3s3,0.6,3.3,2.1l3.5,16C33.1,39,41.3,39,42,42.3c1,4.6,2.5,11.6,1.6,13.9
			c-0.9,2.3-2.6,4.2-4.9,4.7l-8.8,1.9c-2.7,0.6-5.5-0.3-7.3-2.4L11.4,46.8l0.7-0.8c1.4-1.8,4-2.2,5.8-0.9l2.7,2l-4.3-19.7
			c-0.3-1.5,0.6-2.9,2.1-3.3c1.5-0.3,2.9,0.6,3.3,2l-0.9-3.9c-0.3-1.5,0.6-3,2.1-3.3H23c1.5-0.3,3,0.6,3.3,2.1L26.8,23.4z"/>
    <path fill="#F55460" d="M56.1,36.6c-1.8-5-5.9-6.3-9.2-5.9C44.4,31,42.3,32.3,41,34c-1.9-1-4.4-1.3-6.7-0.6
			c-3.1,1-6.3,3.9-5.9,9.2c0.4,4.4,3.4,8.3,8.9,11.3c3.9,2.1,7.6,3,7.8,3c0.3,0.1,0.6,0.1,1,0c0.3-0.1,0.6-0.2,0.9-0.4
			c0.1-0.1,3.1-2.5,5.8-6C56.5,45.6,57.6,40.8,56.1,36.6z"/>
    <path fill="#D71D2A" d="M56.1,36.6c-1.8-5-5.9-6.3-9.2-5.9c-2.2,0.3-4.1,1.3-5.4,2.7c1.9,0.8,3.7,2.5,4.7,5.3
			c1.5,4.2,0.4,9-3.4,14c-0.8,1-1.6,1.9-2.3,2.8c2.5,1,4.4,1.5,4.5,1.5c0.3,0.1,0.6,0.1,1,0c0.3-0.1,0.6-0.2,0.9-0.4
			c0.1-0.1,3.1-2.5,5.8-6C56.5,45.6,57.6,40.8,56.1,36.6z"/>
	</g>
  <path fill="#00C0F3" d="M51.5,83.4c22.7-5,37-27.4,32-50.1s-27.4-37-50.1-32s-37,27.4-32,50.1S28.8,88.4,51.5,83.4z"/>
</g>
    <path fill="#015A9A" d="M60,62.9c-1.3-0.1-3.1-1.5-2.8-4.4s2.3-3.9,3.6-3.7c0.3,0,0.7,0.2,1.2,0.4c-0.3-0.5-0.5-0.9-0.6-1.1
	c-0.1-0.7,0-1.6,0.6-2.4l-0.9-6.1c-1.3-9.1-7.3-16.2-15.2-19.2c-2.3-0.9-4.6-1.4-7-1.5c-2.1,1.1-4,2.6-5.7,4.3
	c-5.8,6-8.3,15-5.7,23.8l2.5,8.5c2.5,8.3,14.2,11.8,19.3,10.7c3.3-0.7,8.4-4.5,11.1-9.4C60.3,62.9,60.1,62.9,60,62.9z"/>
    <path fill="#13326F" d="M45.9,26.5c-1.8-0.7-3.6-1.1-5.5-1.4h0.1c7.8,3,13.9,10.1,15.2,19.2l1.3,8.8c1.2,8.6-7.9,16.7-13,17.8
	c-1.1,0.2-2.4,0.3-3.9,0.1c3.5,1.3,7,1.7,9.2,1.3c3.3-0.7,8.4-4.5,11.1-9.4c-0.2,0-0.4,0.1-0.5,0c-1.3-0.1-3.1-1.5-2.8-4.4
	s2.3-3.9,3.6-3.7c0.3,0,0.7,0.2,1.2,0.4c-0.3-0.5-0.5-0.9-0.6-1.1c-0.1-0.7,0-1.6,0.6-2.4L61,45.6C59.7,36.5,53.7,29.5,45.9,26.5z"
    />
    <path fill="#B9E746" d="M42.8,46.5c0.8,3.8-1.6,7.6-5.4,8.5c-3.8,0.8-7.6-1.6-8.5-5.4c-0.8-3.8,1.6-7.6,5.4-8.5
	C38.1,40.2,41.9,42.6,42.8,46.5z"/>
    <path fill="#B9E746" d="M58.4,43c0.8,3.8-1.6,7.6-5.4,8.5c-3.8,0.8-7.6-1.6-8.5-5.4c-0.8-3.8,1.6-7.6,5.4-8.5
	C53.7,36.8,57.5,39.2,58.4,43z"/>
    <path fill="#A0C83D" d="M36.7,41c0.8,0.9,1.4,2,1.7,3.3c0.8,3.8-1.6,7.6-5.4,8.5c-0.8,0.2-1.7,0.2-2.5,0.1c1.7,1.8,4.2,2.7,6.7,2.1
	c3.8-0.8,6.3-4.6,5.4-8.5C42.1,43.5,39.6,41.3,36.7,41z"/>
    <path fill="#A0C83D" d="M52.3,37.5c0.8,0.9,1.4,2,1.7,3.3c0.8,3.8-1.6,7.6-5.4,8.5c-0.8,0.2-1.7,0.2-2.5,0.1
	c1.7,1.8,4.2,2.7,6.7,2.1c3.8-0.8,6.3-4.6,5.4-8.5C57.7,40,55.2,37.9,52.3,37.5z"/>
    <path fill="#FFCDBE" d="M53.5,56.8c0.7,3.2-1.9,6.6-5.9,7.4c-4,0.9-7.8-1-8.5-4.2s2.3-4.9,6.3-5.8C49.3,53.3,52.8,53.6,53.5,56.8z"
    />
    <path fill="#FFF2B2" d="M61.1,45.7l0.9,6.1c0.5-0.7,1.3-1.3,2.5-1.6c2.1-4.5,2.7-9.7,1.7-14.8c-1.1-4.7-3.5-8.7-6.8-11.8
	C52.5,21,45.1,21.7,39,25c2.4,0.2,4.7,0.7,7,1.5C53.7,29.5,59.7,36.5,61.1,45.7z"/>
    <path fill="#FFF2B2" d="M37.2,17.2C24.3,20.1,16,32.8,18.6,45.8c1.6,6.7,5.8,12.1,11.4,15.3L27.6,53c-2.6-8.8-0.2-17.8,5.7-23.8
	c6.7-6.8,16.9-9.3,26.1-5.8C53.6,17.9,45.3,15.4,37.2,17.2z"/>
    <path fill="#FFEA84" d="M37.2,17.2c6.5-1.4,13.1-0.1,18.4,3.3c-4-6.4-11.7-9.9-19.5-8.2S22.8,20.5,21.8,28
	C25.2,22.7,30.6,18.7,37.2,17.2z"/>
    <path fill="#FFE046" d="M49.2,17.6c2.2,0.6,4.4,1.6,6.5,3c-3-4.8-8.1-8-13.8-8.6C44.7,13.2,47.2,15.1,49.2,17.6z"/>
    <path fill="#FFE565" d="M59.3,23.5c-1.8-0.7-3.6-1.1-5.5-1.4h0.1c3.2,3.1,5.7,7.2,6.8,11.8c0.7,3.3,0.6,6.7,0,9.8
	c0.3,1.3,0.3,1.7,1.2,7.9c0.5-0.7,1.3-1.3,2.5-1.6c2.1-4.5,2.7-9.7,1.7-14.8C65.1,30.9,62.8,26.8,59.3,23.5z"/>
    <path fill="#FFE565" d="M46.2,16.9L46.2,16.9c1.9,0.8,1.3,3.5-0.7,3.5c-6.6,0-13,2.6-17.6,7.4c-5.8,6-8.3,15-5.7,23.8l1.1,3.8
	c1.9,2.3,4.1,4.3,6.7,5.7L27.6,53c-2.6-8.8-0.2-17.8,5.7-23.8c6.7-6.8,16.9-9.3,26.1-5.8C55.8,20,51.1,17.7,46.2,16.9z"/>
    <path fill="#E9F8C5" d="M35.4,46.1c-0.5,0.1-1-0.2-1.1-0.7L34,43.8c-0.1-0.5,0.2-1,0.7-1.1s1,0.2,1.1,0.7l0.3,1.5
	C36.2,45.5,35.9,46,35.4,46.1z M38.2,46.1l0.8-1.3c0.3-0.4,0.1-1-0.3-1.3c-0.4-0.3-1-0.1-1.3,0.3l-0.8,1.3c-0.3,0.4-0.1,1,0.3,1.3
	c0.2,0.1,0.5,0.2,0.7,0.1C37.8,46.4,38,46.3,38.2,46.1z M41.1,46.8C41,46.3,40.5,46,40,46.1l-1.5,0.3c-0.5,0.1-0.8,0.6-0.7,1.1
	s0.6,0.8,1.1,0.7l1.5-0.3C40.9,47.8,41.2,47.3,41.1,46.8z M40.4,50.9c0.3-0.4,0.1-1-0.3-1.3l-1.3-0.8c-0.4-0.3-1-0.1-1.3,0.3
	c-0.3,0.4-0.1,1,0.3,1.3l1.3,0.8c0.2,0.1,0.5,0.2,0.7,0.1C40,51.3,40.2,51.1,40.4,50.9z M37.7,52.2l-0.3-1.5
	c-0.1-0.5-0.6-0.8-1.1-0.7s-0.8,0.6-0.7,1.1l0.3,1.5c0.1,0.5,0.6,0.8,1.1,0.7S37.8,52.7,37.7,52.2z M34.2,52.3L35,51
	c0.3-0.4,0.1-1-0.3-1.3c-0.4-0.3-1-0.1-1.3,0.3l-0.8,1.3c-0.3,0.4-0.1,1,0.3,1.3c0.2,0.1,0.5,0.2,0.7,0.1
	C33.8,52.6,34,52.5,34.2,52.3z M33.9,48.4c-0.1-0.5-0.6-0.8-1.1-0.7L31.3,48c-0.5,0.1-0.8,0.6-0.7,1.1c0.1,0.5,0.6,0.8,1.1,0.7
	l1.5-0.3C33.7,49.4,34,48.9,33.9,48.4z M34.1,46.9c0.3-0.4,0.1-1-0.3-1.3l-1.3-0.8c-0.4-0.3-1-0.1-1.3,0.3c-0.3,0.4-0.1,1,0.3,1.3
	l1.3,0.8c0.2,0.1,0.5,0.2,0.7,0.1C33.8,47.3,34,47.2,34.1,46.9z"/>
    <path fill="#CBED74" d="M37,53.3c-0.5,0.1-1-0.2-1.1-0.7l-0.2-1c0.6-0.4,1-0.9,1.5-1.4c0.1,0.1,0.2,0.3,0.2,0.4l0.3,1.5
	C37.8,52.7,37.5,53.2,37,53.3z M34.1,52.4c-0.3,0.1-0.5,0.2-0.8,0.3c0.1,0,0.2,0,0.4,0C33.8,52.6,33.9,52.6,34.1,52.4z M37.8,50.3
	l1.3,0.8c0.2,0.1,0.5,0.2,0.7,0.1c0.2-0.1,0.4-0.2,0.6-0.4c0.3-0.4,0.1-1-0.3-1.3l-1.3-0.8c-0.2-0.1-0.5-0.2-0.7-0.1
	c-0.2,0.4-0.4,0.8-0.6,1.1C37.4,50,37.6,50.2,37.8,50.3z M41.1,46.8C41,46.3,40.5,46,40,46.1l-1.4,0.3c-0.1,0.6-0.2,1.2-0.4,1.8
	c0.2,0.1,0.4,0.1,0.6,0.1l1.5-0.3C40.9,47.8,41.2,47.3,41.1,46.8z M38.5,44.3c0.1,0.4,0.1,0.7,0.2,1.1l0.4-0.6
	c0.3-0.4,0.1-1-0.3-1.3c-0.2-0.1-0.3-0.1-0.5-0.1C38.3,43.6,38.4,43.9,38.5,44.3z"/>
    <path fill="#E9F8C5" d="M51,42.6c-0.5,0.1-1-0.2-1.1-0.7l-0.3-1.5c-0.1-0.5,0.2-1,0.7-1.1s1,0.2,1.1,0.7l0.3,1.5
	C51.8,42,51.5,42.5,51,42.6z M49.7,43.5c0.3-0.4,0.1-1-0.3-1.3l-1.3-0.8c-0.4-0.3-1-0.1-1.3,0.3c-0.3,0.4-0.1,1,0.3,1.3l1.3,0.8
	c0.2,0.1,0.5,0.2,0.7,0.1C49.4,43.8,49.6,43.7,49.7,43.5z M49.5,45c-0.1-0.5-0.6-0.8-1.1-0.7l-1.5,0.3c-0.5,0.1-0.8,0.6-0.7,1.1
	s0.6,0.8,1.1,0.7l1.5-0.3C49.3,46,49.6,45.5,49.5,45z M49.8,48.8l0.8-1.3c0.3-0.4,0.1-1-0.3-1.3c-0.4-0.3-1-0.1-1.3,0.3l-0.8,1.3
	c-0.3,0.4-0.1,1,0.3,1.3c0.2,0.1,0.5,0.2,0.7,0.1C49.4,49.2,49.6,49,49.8,48.8z M53.3,48.7L53,47.2c-0.1-0.5-0.6-0.8-1.1-0.7
	s-0.8,0.6-0.7,1.1l0.3,1.5c0.1,0.5,0.6,0.8,1.1,0.7S53.4,49.2,53.3,48.7z M56,47.5c0.3-0.4,0.1-1-0.3-1.3l-1.3-0.8
	c-0.4-0.3-1-0.1-1.3,0.3c-0.3,0.4-0.1,1,0.3,1.3l1.3,0.8c0.2,0.1,0.5,0.2,0.7,0.1C55.6,47.8,55.8,47.7,56,47.5z M56.7,43.4
	c-0.1-0.5-0.6-0.8-1.1-0.7L54.1,43c-0.5,0.1-0.8,0.6-0.7,1.1s0.6,0.8,1.1,0.7l1.5-0.3C56.5,44.4,56.8,43.9,56.7,43.4z M53.8,42.6
	l0.8-1.3c0.3-0.4,0.1-1-0.3-1.3c-0.4-0.3-1-0.1-1.3,0.3l-0.8,1.3c-0.3,0.4-0.1,1,0.3,1.3c0.2,0.1,0.5,0.2,0.7,0.1
	C53.4,43,53.6,42.8,53.8,42.6z"/>
    <path fill="#CBED74" d="M52.6,49.8c-0.5,0.1-1-0.2-1.1-0.7l-0.2-1c0.6-0.4,1-0.9,1.5-1.4c0.1,0.1,0.2,0.3,0.2,0.4l0.3,1.5
	C53.4,49.2,53.1,49.7,52.6,49.8z M49.6,49c-0.3,0.1-0.5,0.2-0.8,0.3c0.1,0,0.2,0,0.4,0C49.4,49.2,49.5,49.1,49.6,49z M56.7,43.4
	c-0.1-0.5-0.6-0.8-1.1-0.7L54.2,43c-0.1,0.6-0.2,1.2-0.4,1.8c0.2,0.1,0.4,0.1,0.6,0.1l1.5-0.3C56.5,44.4,56.8,43.9,56.7,43.4z
	 M54.1,40.8c0.1,0.4,0.1,0.7,0.2,1.1l0.4-0.6c0.3-0.4,0.1-1-0.3-1.3c-0.2-0.1-0.3-0.1-0.5-0.1C53.9,40.2,54,40.5,54.1,40.8z
	 M53.4,46.9l1.3,0.8c0.2,0.1,0.5,0.2,0.7,0.1c0.2-0.1,0.4-0.2,0.6-0.4c0.3-0.4,0.1-1-0.3-1.3l-1.3-0.8c-0.2-0.1-0.5-0.2-0.7-0.1
	c-0.2,0.4-0.4,0.8-0.6,1.1C53,46.6,53.2,46.8,53.4,46.9z"/>
    <path fill="#FAA68E" d="M49.7,59.4l-6.5,1.4c-0.5,0.1-1-0.2-1.1-0.7s0.2-1,0.7-1.1l6.5-1.4c0.5-0.1,1,0.2,1.1,0.7
	C50.5,58.8,50.2,59.3,49.7,59.4z"/>
    <path fill="#FFE046" d="M74.3,59.8c1.1-0.7,2.2-2.6,0.7-5.1s-3.7-2.5-4.8-1.9c-0.2,0.1-0.6,0.5-0.9,0.9c0.1-0.5,0.1-1,0-1.2
	c-0.3-1.3-1.8-2.9-4.7-2.3c-2.9,0.6-3.6,2.7-3.3,4c0.1,0.3,0.3,0.7,0.6,1.1c-0.5-0.2-0.9-0.4-1.2-0.4c-1.3-0.1-3.3,0.8-3.6,3.7
	s1.5,4.2,2.8,4.4c0.3,0,0.7,0,1.2-0.2c-0.4,0.4-0.7,0.7-0.8,1c-0.5,1.2-0.2,3.4,2.4,4.6c2.7,1.2,4.5-0.1,5-1.3
	c0.1-0.2,0.2-0.7,0.2-1.2c0.3,0.5,0.5,0.9,0.7,1c1,0.9,3.2,1.3,5.1-0.9c1.9-2.2,1.3-4.3,0.3-5.2c-0.2-0.2-0.6-0.4-1.1-0.6
	C73.6,60,74.1,59.9,74.3,59.8z"/>
    <path fill="#EEC707" d="M74.3,59.8c1.1-0.7,2.2-2.6,0.7-5.1s-3.7-2.5-4.8-1.9c-0.2,0.1-0.3,0.3-0.6,0.5l0,0c1.5,2.5,0.4,4.5-0.7,5.1
	c0,0,0,0-0.1,0c-0.3,0.2-0.4,0.6-0.1,0.8c0,0,0,0,0.1,0c1,0.9,1.6,3-0.3,5.2s-4.1,1.8-5.1,0.9c0,0,0,0,0-0.1
	c-0.3-0.3-0.7-0.2-0.8,0.2c0,0,0,0,0,0.1c-0.2,0.5-0.7,1.1-1.4,1.4c0.4,0.5,1,0.9,1.8,1.2c2.7,1.2,4.5-0.1,5-1.3
	c0.1-0.2,0.2-0.7,0.2-1.2c0.3,0.5,0.5,0.9,0.7,1c1,0.9,3.2,1.3,5.1-0.9c1.9-2.2,1.3-4.3,0.3-5.2c-0.2-0.2-0.6-0.4-1.1-0.6
	C73.6,60,74.1,59.9,74.3,59.8z"/>
    <path fill="#EEC707" d="M70.4,57.7l-1.7,0.4l0.9-1.5c0.3-0.4,0.1-1-0.3-1.3s-1-0.1-1.3,0.3l-0.9,1.5l-0.4-1.7
	c-0.1-0.5-0.6-0.8-1.1-0.7s-0.8,0.6-0.7,1.1l0.4,1.7l-1.5-0.9c-0.4-0.3-1-0.1-1.3,0.3c-0.3,0.4-0.1,1,0.3,1.3l1.5,0.9l-1.7,0.4
	c-0.5,0.1-0.8,0.6-0.7,1.1s0.6,0.8,1.1,0.7l1.7-0.4l-0.9,1.5c-0.3,0.4-0.1,1,0.3,1.3c0.2,0.1,0.5,0.2,0.7,0.1
	c0.2-0.1,0.4-0.2,0.6-0.4l0.9-1.5l0.4,1.7c0.1,0.5,0.6,0.8,1.1,0.7s0.8-0.6,0.7-1.1l-0.4-1.7l1.5,0.9c0.2,0.1,0.5,0.2,0.7,0.1
	c0.2-0.1,0.4-0.2,0.6-0.4c0.3-0.4,0.1-1-0.3-1.3l-1.5-0.9l1.7-0.4c0.5-0.1,0.8-0.6,0.7-1.1C71.4,57.9,70.9,57.6,70.4,57.7z
	 M66.5,60.5c-0.1-0.1-0.2-0.2-0.3-0.3c-0.1-0.1-0.3-0.1-0.4-0.1c0-0.1,0-0.3,0-0.4c0-0.1-0.1-0.3-0.2-0.4c0.1-0.1,0.2-0.2,0.3-0.3
	c0.1-0.1,0.1-0.3,0.1-0.4c0.1,0,0.3,0,0.4,0s0.3-0.1,0.4-0.2c0.1,0.1,0.2,0.2,0.3,0.3c0.1,0.1,0.3,0.1,0.4,0.1c0,0.1,0,0.3,0,0.4
	c0,0.1,0.1,0.3,0.2,0.4c-0.1,0.1-0.2,0.2-0.3,0.3c-0.1,0.1-0.1,0.3-0.1,0.4c-0.1,0-0.3,0-0.4,0S66.6,60.5,66.5,60.5z"/>
    <path fill="#DDB907" d="M68.8,59.3L68.8,59.3c0.2,0.2,0.4,0.4,0.5,0.6l1.5-0.3c0.5-0.1,0.8-0.6,0.7-1.1c-0.1-0.5-0.6-0.8-1.1-0.7
	L69.6,58c-0.2,0.2-0.4,0.4-0.6,0.5c0,0,0,0-0.1,0C68.5,58.6,68.5,59.1,68.8,59.3z"/>
    <path fill="#DDB907" d="M70.6,60.8l-1.1-0.7c0.3,0.6,0.5,1.4,0.2,2.3c0.2,0.1,0.4,0.1,0.6,0.1c0.2-0.1,0.4-0.2,0.6-0.4
	C71.1,61.7,71,61.1,70.6,60.8z"/>
    <path fill="#E7387F" d="M68.5,59.1c0.2,1-0.4,2-1.4,2.2s-2-0.4-2.2-1.4s0.4-2,1.4-2.2C67.3,57.5,68.3,58.1,68.5,59.1z"/>
    <path fill="#FFFFFF" d="M65.8,14.7c0,0,0.8,2.1,3.3,3.7s4.8,1.4,4.8,1.4s-2.1,0.8-3.7,3.3s-1.4,4.8-1.4,4.8s-0.8-2.1-3.3-3.7
	s-4.8-1.4-4.8-1.4s2.1-0.8,3.7-3.3C66,17,65.8,14.7,65.8,14.7z"/>
    <path fill="#FFFFFF" d="M16.7,55.3c0,0,0.5,1.3,2,2.2c1.5,1,2.9,0.9,2.9,0.9s-1.3,0.5-2.2,2c-1,1.5-0.9,2.9-0.9,2.9s-0.5-1.3-2-2.2
	c-1.5-1-2.9-0.9-2.9-0.9s1.3-0.5,2.2-2C16.8,56.6,16.7,55.3,16.7,55.3z"/>
</symbol>
  <symbol id="skin-5" viewBox="0 0 85 84.4">
<circle fill="#F55460" cx="42.8" cy="42.2" r="42"/>
    <path fill="#FD7E83" d="M37.4,55.6c-0.2,0.8-0.3,1.5-0.5,2.3c-1,3.2-3.3,5.1-6.5,5.9c-2.2,0.6-4.4,0.5-6.6,0.4
	c-0.9,0-1.7-0.1-2.6-0.3c-0.6-0.1-1.1-0.4-1.4-0.9c0-0.3,0-0.6,0-0.9c0.3-0.6,0.5-1.3,0.9-1.9c0.4,0.2,0.8,0.1,1.2,0.1
	c2.1,0.1,4.2,0.2,6.3-0.2c2.2-0.4,4.1-1.3,5.5-3.1c0.2-0.2,0.4-0.4,0.4-0.7l0,0c0.1,0,0.1-0.1,0.1-0.2l0,0c0,0,0-0.1,0.1-0.1
	c0.6-0.8,0.9-1.6,1.1-2.6c0.3,0.3,0.6,0.6,0.9,0.8c0,0.1,0.1,0.1,0.2,0.1l0,0C36.6,55,37.1,55.2,37.4,55.6z"/>
    <path fill="#5A5A5A" d="M64.8,24.8c-0.2,0.6-0.2,1.3-0.4,2c-0.3,1.4-0.6,2.9-1.1,4.2c-0.7-0.7-1.3-1.3-2-2c0,0,0,0,0-0.1
	c0.5-1.5,0.9-3.1,1.2-4.7c0.2-1.3,0.4-2.6,0.2-3.9c0.2,0,0.4,0,0.6,0.1c1,0.2,1.2,0.4,1.4,1.5c0,0.1-0.1,0.2,0.1,0.3
	C64.8,23,64.8,23.9,64.8,24.8z"/>
    <path fill="#EBEBEB" d="M61.3,28.9C61.3,28.9,61.3,29,61.3,28.9c0,0.1,0,0.2-0.1,0.2c-0.6,1.8-1.4,3.6-2.2,5.3
	c-0.7,1.4-1.5,2.7-2.3,4.1c-1.7,2.7-3.6,5.3-5.8,7.6C50,47.1,49,48,48,48.9c-1.2,1-2.4,2-3.6,3c-0.5,0.4-1,0.6-1.4,1.1
	c-0.1-0.1-0.2-0.2-0.4-0.2c0-0.1,0-0.2-0.1-0.3c-0.8-0.8-1.5-1.6-2.4-2.4c-0.7-0.7-1.3-1.4-1.9-2c0.1-0.1,0.2-0.2,0.3-0.4
	c1-1,2-2.1,3.1-3.1c0.4-0.4,0.4-0.8,0.1-1.1c-0.3-0.3-0.7-0.3-1.1,0.1c-0.7,0.7-1.4,1.4-2.1,2.1c-0.4,0.4-0.9,0.8-1.3,1.3
	c-1.4-1.4-2.8-2.8-4.2-4.2c-0.1-0.1-0.2-0.3-0.4-0.3c-0.4-0.6-0.9-1.1-1.4-1.6c-0.3-0.3-0.6-0.5-0.7-0.8c1-1.7,2.3-3.2,3.5-4.6
	c2.5-2.9,5.2-5.4,8.2-7.7c0.1-0.1,0.2-0.1,0.1-0.2c0.7-0.3,1.4-0.9,2.1-1.3c2.8-1.8,5.7-3.4,8.9-4.5c0.2-0.1,0.5-0.2,0.7-0.3
	c0.1,0.1,0.2,0.2,0.3,0.3c1.5,1.5,2.9,3,4.4,4.4C59.7,27.3,60.5,28.1,61.3,28.9z M44.4,40.5c1.4,1.6,3.2,2.3,5.3,2.1
	c3.3-0.4,5.7-3.1,5.8-6.5c0-2-0.8-3.7-2.4-5c-0.5-0.4-0.9-0.7-1.5-0.8c-0.4-0.2-0.9-0.3-1.3-0.4c-2-0.3-3.7,0.3-5.1,1.6
	c-1.7,1.6-2.4,3.5-2.1,5.8C43.2,38.5,43.6,39.6,44.4,40.5z"/>
    <path fill="#FF8C92" d="M34.1,56.4c0,0.3-0.3,0.5-0.4,0.7c-1.5,1.7-3.4,2.6-5.5,3.1c-2.1,0.4-4.2,0.3-6.3,0.2c-0.4,0-0.8,0-1.2-0.1
	c0.5-1.2,1-2.4,1.3-3.7c0.2-1.2,0.3-2.4,0.2-3.6c-0.2-1.6,0.5-2.8,1.7-3.7c1.6-1.1,3.4-1.6,5.3-1.8c0.1,0,0.1,0,0.2,0
	c0.8,0.7,1.6,1.5,2.3,2.3c-0.9,0.1-1.7,0.3-2.4,0.8c-0.6,0.4-1,0.9-0.9,1.6c0.1,1,0,2-0.4,3c-0.2,0.4-0.4,0.9-0.6,1.3
	c-0.2,0.5-0.1,0.7,0.4,0.9c0.4,0.2,0.8,0.2,1.2,0.2c1,0.1,1.9,0.1,2.9-0.1C32.6,57.3,33.4,56.9,34.1,56.4z"/>
    <path fill="#838383" d="M31.6,49.8c-0.7-0.8-1.5-1.6-2.3-2.3c-0.3-0.4-0.6-0.7-0.7-1.2c-0.1-0.6,0.1-1.1,0.6-1.5
	c1.2-0.7,2.4-1.4,3.5-2.1c0.2,0,0.3,0.2,0.4,0.3c1.4,1.4,2.8,2.8,4.2,4.2c0.3,0.4,0.6,0.7,1,1c0.7,0.7,1.3,1.4,1.9,2
	c-0.7,1.3-1.5,2.6-2.2,3.9c-0.2,0.3-0.5,0.5-0.8,0.5s-0.6,0-0.9-0.1l0,0c0-0.1-0.1-0.1-0.2-0.1c-0.3-0.3-0.6-0.6-0.9-0.8
	C34.1,52.3,32.9,51,31.6,49.8z"/>
    <path fill="#01BCD8" d="M28.7,38.3c-0.5-0.5-1-0.9-1.4-1.4c-0.8-0.9-0.9-2-0.3-3.1s1.5-2,2.4-2.8c1.6-1.6,3.4-2.9,5.6-3.6
	c1.5-0.5,3-0.6,4.5-0.3c-0.4,0.5-1,0.9-1.5,1.3c-1.8,1.5-3.5,3.2-5.1,4.9C31.3,34.9,29.9,36.6,28.7,38.3z"/>
    <path fill="#0198B3" d="M28.7,38.3c1.3-1.8,2.6-3.5,4.1-5.1c1.6-1.8,3.3-3.4,5.1-4.9c0.5-0.4,1.1-0.8,1.5-1.3c0.9,0,1.8,0.3,2.7,0.6
	c0.2,0.1,0.4,0.1,0.5,0.2S42.5,28,42.5,28c-3,2.3-5.8,4.8-8.2,7.7c-1.3,1.5-2.5,3-3.5,4.6c-0.2,0-0.2-0.1-0.3-0.2
	C29.8,39.5,29.2,38.9,28.7,38.3z"/>
    <path fill="#838383" d="M61.3,28.9c-0.8-0.8-1.6-1.6-2.4-2.4c-1.5-1.5-2.9-3-4.4-4.4c-0.1-0.1-0.2-0.2-0.3-0.3
	c2.6-0.9,5.2-1.5,7.9-1.5c0.2,0,0.4,0,0.6,0c0.2,1.3,0,2.6-0.2,3.9C62.2,25.8,61.8,27.4,61.3,28.9z"/>
    <path fill="#CDCDCD" d="M43.1,53.1c0.3-0.5,0.9-0.8,1.4-1.1c1.2-1,2.4-2,3.6-3c1-0.9,1.9-1.8,2.8-2.8c2.2-2.3,4.1-4.9,5.8-7.6
	c0.8-1.3,1.6-2.7,2.3-4.1c0.8-1.7,1.6-3.5,2.2-5.3c0-0.1,0.1-0.1,0.1-0.2c0.7,0.7,1.3,1.3,2,2c-0.4,1.2-0.8,2.4-1.3,3.6
	c-1.3,2.9-2.9,5.6-4.7,8.2c-0.4,0.6-0.9,1.2-1.3,1.8l-0.1,0.1c-1.7,2.1-3.5,4.2-5.5,6c-1.7,1.5-3.4,3-5.3,4.3
	c-0.4-0.2-0.7-0.6-1-0.9C43.7,53.8,43.4,53.4,43.1,53.1z"/>
    <path fill="#01BCD8" d="M45.1,55c1.9-1.3,3.6-2.8,5.3-4.3c2-1.8,3.8-3.9,5.5-6l0.1-0.1c0.1,0.9,0.1,1.7,0,2.6
	c-0.2,1.6-0.7,3.1-1.5,4.5c-1,1.6-2.3,3-3.6,4.3c-0.9,0.9-2,1.7-3.4,1.5c-0.7-0.7-1.5-1.5-2.2-2.2C45.2,55.2,45.1,55.1,45.1,55z"/>
    <path fill="#0198B3" d="M47.4,57.5c1.4,0.2,2.5-0.6,3.4-1.5c1.3-1.3,2.7-2.7,3.6-4.3c0.8-1.4,1.4-2.9,1.5-4.5c0.1-0.9,0.1-1.7,0-2.6
	c0.4-0.6,0.9-1.2,1.3-1.8c1.7,4.7,1.1,9-2.3,12.7c-0.9,1-1.8,2.1-2.9,2.9c-1.5,1.2-2.8,1.1-4.1-0.3C47.8,57.9,47.6,57.7,47.4,57.5z"
    />
    <path fill="#5A5A5A" d="M36.4,54.5c0.3,0,0.6,0.1,0.9,0.1c0.4,0,0.7-0.2,0.8-0.5c0.7-1.3,1.5-2.6,2.2-3.9c0.8,0.7,1.6,1.6,2.4,2.4
	c0.1,0.1,0.1,0.2,0.1,0.3c-0.7,1.2-1.3,2.3-2,3.5c-0.5,0.9-1.5,1.1-2.2,0.4c-0.4-0.3-0.8-0.7-1.1-1.1C37.1,55.2,36.6,55,36.4,54.5z"
    />
    <path fill="#FED844" d="M31.6,49.8c1.2,1.3,2.5,2.5,3.7,3.8c-0.1,1-0.5,1.8-1.1,2.6c0,0,0,0.1-0.1,0.1l0,0c-0.1,0-0.1,0.1-0.1,0.2
	l0,0c-0.7,0.5-1.5,0.9-2.3,1c-1,0.2-1.9,0.2-2.9,0.1c-0.4,0-0.8,0-1.2-0.2c-0.5-0.2-0.6-0.4-0.4-0.9s0.4-0.9,0.6-1.3
	c0.4-0.9,0.6-1.9,0.4-3c-0.1-0.7,0.3-1.3,0.9-1.6C29.9,50.1,30.8,49.8,31.6,49.8z"/>
    <path fill="#5A5A5A" d="M36.2,54.4c0.1,0,0.1,0,0.2,0.1C36.3,54.5,36.3,54.5,36.2,54.4z"/>
    <path fill="#FE626B" d="M34.1,56.4c0-0.1,0-0.1,0.1-0.2C34.2,56.3,34.2,56.4,34.1,56.4z"/>
    <path fill="#FE626B" d="M34.2,56.3C34.2,56.2,34.3,56.2,34.2,56.3C34.3,56.2,34.2,56.2,34.2,56.3z"/>
    <path fill="#A0E6F0" d="M44.4,40.5c-0.8-0.9-1.2-1.9-1.4-3.1c-0.3-2.3,0.4-4.3,2.1-5.8c1.4-1.3,3.1-1.9,5.1-1.6
	c0.5,0.1,0.9,0.1,1.3,0.4c0.1,0.2,0.2,0.4,0.3,0.6c0.8,1.3,1,2.8,0.8,4.3c-0.3,1.8-1.2,3.3-2.7,4.3c-1.3,0.9-2.8,1.3-4.4,1.1
	C45.2,40.5,44.8,40.3,44.4,40.5z"/>
    <path fill="#5FD8E8" d="M44.4,40.5c0.4-0.2,0.8,0.1,1.1,0.1c1.6,0.2,3.1-0.2,4.4-1.1c1.5-1,2.4-2.5,2.7-4.3c0.2-1.5,0-3-0.8-4.3
	c-0.1-0.2-0.3-0.4-0.3-0.6c0.6,0.1,1.1,0.5,1.5,0.8c1.6,1.3,2.5,2.9,2.4,5c0,3.5-2.5,6.1-5.8,6.5C47.6,42.8,45.8,42.1,44.4,40.5z"/>
    <path fill="#CDCDCD" d="M38.3,48.2c-0.3-0.3-0.7-0.6-1-1c0.4-0.5,0.8-0.9,1.3-1.3c0.7-0.7,1.4-1.4,2.1-2.1c0.4-0.3,0.8-0.4,1.1-0.1
	s0.2,0.7-0.1,1.1c-1,1-2,2.1-3.1,3.1C38.5,47.9,38.4,48.1,38.3,48.2z"/>
    <path fill="#FFFFFF" d="M64.3,56.2c0,0,0.3,2.2,2.3,4.2s4.2,2.3,4.2,2.3S68.6,63,66.6,65s-2.3,4.2-2.3,4.2s-0.3-2-2.3-4.1
	c-2-2-4.2-2.3-4.2-2.3s2.2-0.3,4.2-2.3C64,58.4,64.3,56.2,64.3,56.2z"/>
    <path fill="#FFFFFF" d="M13.1,28.2c0,0,0.2,1.4,1.5,2.8c1.3,1.3,2.8,1.5,2.8,1.5S16,32.7,14.6,34s-1.5,2.8-1.5,2.8s-0.2-1.4-1.5-2.8
	s-2.8-1.5-2.8-1.5s1.4-0.2,2.8-1.5C12.9,29.7,13.1,28.2,13.1,28.2z"/>
</symbol>
  <symbol id="skin-6" viewBox="0 0 84.1 84.7">
<g>
	<path fill="#C385F8" d="M53.6,82.9C75.9,76.6,88.8,53.3,82.4,31C76.1,8.7,52.8-4.2,30.5,2.2S-4.7,31.8,1.7,54.1
		C8,76.4,31.3,89.3,53.6,82.9z"/>
</g>
    <path fill="#E67E3D" d="M14.9,53c0,0.1,0,0.1,0.1,0.2c0.5,0.2,1,0.3,1.4,0.5c1.2,0.3,2.5,0.4,3.8,0.4c1.7-0.1,3.4-0.4,5.1-0.9
	c0.8-1,1.8-1.8,2.7-2.6v-0.1c-1,0.3-2,0.3-3,0.1c-1.4-0.2-2.6-0.9-3.5-1.9c-0.8-0.7-1.3-1.6-1.5-2.6c-0.7-1.9-1.2-3.8-1.8-5.7
	c-0.3-1.1-0.3-1.1,0.7-1.5c0.5-0.3,0.9-0.5,1.4-0.8c0.5-0.6,1.1-1.1,1.6-1.7c0.7-0.9,1.3-2,1.8-3c0.1-0.3,0.2-0.6,0.3-0.8
	c0.1-0.2,0.2-0.3,0.4-0.2c0.6,0.2,1.2,0.4,1.8,0.5c1.2,0.2,2.4,0.4,3.7,0.5c1.6,0.1,3.3,0.2,4.9,0c-0.3-1-0.6-1.9-0.8-2.9
	c-0.6-2.2-1.3-4.4-2.3-6.4c-0.7-1.4-1.6-2.6-3.1-3.3c-0.6-0.3-1.3-0.3-2-0.5c-0.1-0.1-0.3,0-0.4,0c-1.8,0.5-3.6,1.1-5.3,1.8
	c-0.5,0.3-1.1,0.6-1.6,0.8c-1.7,1-3.3,2.2-4.6,3.8c-0.3,0.4-0.6,0.9-0.9,1.3c-0.9,1.7-1.4,3.5-1.6,5.4c0,0.6,0,1.2,0,1.8
	c0.2,1.9,0.6,3.7,1.1,5.6c0.2,0.5,0.4,1.1,0.4,1.7c0.3,0.7,0.5,1.4,0.6,2.2c0.2,0.6,0.4,1.3,0.5,1.9c0.3,1.5,0.7,3.1,0.5,4.7
	C15.4,51.9,15.3,52.5,14.9,53z"/>
    <path fill="#5F4EAF" d="M73,45.2c-0.1-0.2-0.1-0.4-0.2-0.5c-0.4-0.4-0.8-0.4-1.3-0.2c-1.3,0.4-2.6,0.7-3.8,1.1
	c-0.5,0.1-0.6,0-0.7-0.4c-0.2-0.6-0.3-1.2-0.6-1.8c-0.8-1.7-2.2-2.6-4-3c-0.4,0-0.8,0-1.1,0c-1,0-1.9,0.4-2.9,0.6
	c-0.3,0.1-0.6,0.2-0.9,0.3c0.4,0.3,0.9,0.1,1.3,0.3c1.5,0.6,2.3,1.7,2.8,3.1c0.5,1.3,0.8,2.7,1.2,4.1c1.6-0.4,3.1-0.9,4.7-1.3
	c1.5-0.4,2.9-0.9,4.4-1.3C72.5,45.9,72.8,45.7,73,45.2z"/>
    <path fill="#AD5A38" d="M24.2,64.6c1,1.4,2.1,2.6,3.6,3.5c-0.2,0.1-0.3,0.2-0.4,0.3c-1.1,0.9-1.8,2.1-2,3.5c0,0.3,0,0.6,0,0.8
	c0.2,0.6,0.6,0.8,1.2,0.6c0.4-0.1,0.7-0.4,1-0.6c0.9-0.9,1.5-2,1.6-3.3c-0.1-0.7-0.6-1.3-0.7-2c-0.5-1.9-1.1-3.8-1.7-5.7
	c-0.1-0.2-0.1-0.3,0.1-0.5c0.3-0.3,0.6-0.5,0.9-0.8c0.3-0.4,0.6-0.9,0.9-1.3c0.5-1,1.1-1.9,1.4-2.9c0.1-0.2,0.2-0.3,0.4-0.2
	c2,0.8,4.1,1.1,6.3,1.1c0.8-0.1,1.6-0.3,2.5-0.4c0.3-0.1,0.7-0.2,1-0.3l0,0c-0.5-1.9-1.3-3.7-2.6-5.3c-0.8-1-1.6-1.8-2.8-2.3
	c-0.6-0.2-1.3-0.2-1.9-0.4c-0.6,0.2-1.3,0.4-1.9,0.6C30,49.3,29,50,28,50.6c-0.9,0.8-1.9,1.6-2.7,2.6c-0.7,0.9-1.2,1.9-1.7,2.9
	c-0.2,0.5-0.3,0.9-0.4,1.4c-0.2,1.3-0.3,2.7-0.1,4C23.3,62.7,23.7,63.6,24.2,64.6z"/>
    <path fill="#E25520" d="M31,19.5c-0.9,0.1-1.7,0.3-2.6,0.3c-0.6,0.2-1.2,0.2-1.8,0.5c0.6,0.2,1.3,0.1,2,0.5c1.5,0.7,2.4,1.9,3.1,3.3
	c1,2,1.7,4.2,2.3,6.4c0.3,1,0.6,1.9,0.8,2.9l0,0c1.1-0.1,2.2-0.2,3.3-0.4c0-0.1-0.1-0.3-0.1-0.4c-0.8-1.4-1.6-2.8-2.2-4.3
	c-0.6-1.6-1.2-3.2-1.1-5c0-1.4,0.4-2.6,1.6-3.4c-1.5-0.5-3.1-0.5-4.7-0.5C31.4,19.5,31.2,19.5,31,19.5z"/>
    <path fill="#FAE0BD" d="M18.1,40.4c-0.3-1.1-0.3-1.1,0.7-1.5c0.5-0.3,0.9-0.5,1.4-0.8c0.5-0.6,1.1-1.1,1.6-1.7c0.7-0.9,1.3-2,1.8-3
	c0.1-0.3,0.2-0.6,0.3-0.8c0.1-0.2,0.2-0.3,0.4-0.2c0.6,0.2,1.2,0.4,1.8,0.5c1.2,0.2,2.4,0.4,3.7,0.5c1.6,0.1,3.3,0.2,4.9,0l0,0
	c0.2,0.5,0.4,1,0.6,1.5c-0.9,0.4-1.2,1.5-0.5,2.5c0.1,0.1,0.2,0.3,0.3,0.4c0.4,0.2,0.7,0.4,1.2,0.2c0.4,0.8,0.3,1.7,0.6,2.6
	c-0.2,0-0.2,0,0,0c0.5,2,0.8,4,0.3,6.1c0,0.2,0,0.4-0.2,0.5c-0.1,0.2-0.1,0.4-0.2,0.5c-0.7,0.1-1.3,0.1-2,0.2
	c-0.6,0.1-1.2,0.2-1.8,0.4s-1.3,0.4-1.9,0.6C30,49.3,29,50,27.9,50.6l0,0c-1,0.3-2,0.3-3,0.1c-1.4-0.2-2.6-0.9-3.5-1.9
	c-0.8-0.7-1.3-1.6-1.5-2.6C19.2,44.2,18.6,42.3,18.1,40.4z M24.2,38.1c-0.5,0.1-0.6,0.5-0.7,0.9c0,0.2,0,0.4,0,0.7
	c0.1,0.4,0.3,0.7,0.5,1c0.5,0.6,1,0.6,1.6,0.1c0.4-0.8,0.3-1.6-0.3-2.3C25.1,38.2,24.7,37.9,24.2,38.1z M33.9,40.5
	c-0.5-0.2-0.9,0.1-1.1,0.7c-0.5,1.5-2,2-3.2,0.9c-0.6-0.5-0.9-0.5-1.5,0.1v0.1c-0.2,0.4-0.1,0.7,0.2,0.9c0.9,0.9,2,1.3,3.3,1
	c0.1,0,0.2,0,0.3-0.1c1.3-0.4,2.1-1.3,2.5-2.6C34.6,41.1,34.4,40.7,33.9,40.5z M32,44.3C32,44.4,32,44.4,32,44.3
	C32,44.4,32,44.4,32,44.3z"/>
    <path fill="#964E32" d="M36.8,47.7c-0.7,0.1-1.3,0.1-2,0.2c-0.6,0.1-1.2,0.2-1.8,0.4c0.6,0.2,1.3,0.1,1.9,0.4
	c1.2,0.4,2.1,1.3,2.8,2.3c1.2,1.6,2.1,3.3,2.6,5.3c1.3-0.5,2.5-1.1,3.6-2.1c0.1,0.2,0.1,0.4,0.2,0.6c0.5,1.7,1,3.4,1.4,5.1
	c0.4,1.5,0.9,2.9,1.1,4.4c1,1.2,2.2,1.9,3.7,2.1c0.8,0.1,1.2-0.2,1.4-0.8c-0.3-1.2-1.2-1.9-2.2-2.4c-0.7-0.4-1.4-0.6-2.3-0.5
	c0.2-0.4,0.3-0.7,0.5-1c0.3-0.9,0.6-1.9,0.7-2.9c0-0.6,0.1-1.2,0.1-1.8c-0.2-0.5-0.2-1-0.3-1.5c-0.3-0.8-0.6-1.6-1-2.3
	c-1.4-2.1-3.3-3.5-5.6-4.4c-1.1-0.4-2.3-0.6-3.4-0.8C37.8,47.8,37.3,47.7,36.8,47.7z"/>
    <path fill="#F0D0AB" d="M42.3,68.1c0.1,0.5-0.4,0.9-0.4,1.4c0.6-0.2,1.2-0.4,1.8-0.6c0.5-0.3,1-0.6,1.4-1c1-1,1.5-2.3,1.7-3.7
	c-0.1-1.5-0.7-2.9-1.1-4.4c-0.5-1.7-1-3.4-1.4-5.1c0-0.2-0.1-0.3-0.2-0.6c-1.1,0.9-2.3,1.6-3.6,2.1l0,0c0.1,0.4,0.2,0.7,0.3,1.1
	c0.2,0.7,0.5,1.4,0.5,2.2c0.2,0.3,0.2,0.7,0.2,1c0.3,0.5,0.2,1.1,0.4,1.6c0.5-0.2,0.9-0.5,1.5-0.4c0.4,0,0.7,0.2,0.8,0.5
	s-0.1,0.6-0.4,0.8c-0.5,0.3-1,0.5-1.6,0.5c0.1,0.9,0.3,1.9,0.2,2.8C42.5,67,42.5,67.5,42.3,68.1z"/>
    <path fill="#F0D0AB" d="M71.8,51.9c-0.5-1.5-1.6-2.1-3.1-1.9c-0.3,0.1-0.4,0-0.5-0.3c-0.2-0.6-0.3-1.3-0.5-1.9
	c-0.1-0.2-0.1-0.3-0.2-0.5c-1.6,0.4-3.1,0.9-4.7,1.3l0,0c0.4,1.1,0.8,2.2,1.1,3.4c1,0.4,1.3,1.5,0.7,2.4c0.2,0.5,0.3,1.1,0.5,1.6
	c0.2,0.7,0.4,1.4,0.5,2.1c0.2,1.2,0.3,2.3-0.1,3.5c-0.1,0.4-0.3,0.8-0.8,0.9c0,0.1,0,0.2,0,0.3c0.2-0.1,0.4-0.1,0.7-0.2
	c0.7-0.2,1.4-0.4,2-0.8c1.3-0.7,2.1-1.7,2.6-3c0.1-0.5,0.1-0.9,0.2-1.4c-0.1-0.6-0.1-1.3-0.3-1.9c-0.1-0.2-0.1-0.4,0.2-0.5
	C71.5,54.4,72.1,53.3,71.8,51.9z"/>
    <path fill="#F0D0AB" d="M50.9,56.6c-0.1-0.5-0.3-0.9-0.4-1.4c-0.4,0.2-0.7,0.4-1.1,0.6c-0.3,0.3-0.5,0.7-0.8,1
	c0,0.6-0.1,1.2-0.1,1.8c0.3,0.1,0.3,0.5,0.5,0.7c0.8,1,1.7,1.3,2.9,1C51.6,59,51.2,57.8,50.9,56.6z"/>
    <path fill="#8174BE" d="M62.9,48.6c-0.4-1.4-0.7-2.7-1.2-4.1c-0.5-1.4-1.3-2.6-2.8-3.1c-0.4-0.2-0.9,0-1.3-0.3
	c-0.5,0-0.8,0.3-1.3,0.4c-0.7,0.3-1.4,0.5-2.1,0.6c-0.3,0.1-0.5,0.2-0.8,0.3c-1.4,0.3-2.7,0.9-3.6,2c-0.1,0.2-0.3,0.4-0.4,0.5
	c0,0.1-0.1,0.2-0.2,0.2c0.1,0.1,0.1,0.2,0,0.2c-0.3,0.6-0.4,1.2-0.6,1.8c0,0.3,0,0.7,0,1c0.2,1.5,0.7,2.8,1.1,4.3
	c1.1-0.3,2.2-0.6,3.3-0.9c-0.2-0.6-0.4-1.3-0.5-1.9c-0.3-1.1,0.3-2.1,1.4-2.5c0.6-0.2,1.1-0.3,1.7-0.5c1.1-0.3,2.2,0.3,2.5,1.4
	c0.2,0.6,0.4,1.3,0.6,1.9C60,49.5,61.5,49.1,62.9,48.6L62.9,48.6z"/>
    <path fill="#E5C597" d="M24.3,42.1c-0.5,0.1-1,0.2-1.5,0.5c-0.1,0.1-0.2,0.1-0.3,0.2c-0.3,0.3-0.7,0.6-0.5,1.1
	c0.1,0.4,0.6,0.6,1,0.6c0.8,0.1,1.5-0.1,2.1-0.6c0.3-0.3,0.5-0.7,0.4-1.2C25.4,42.4,25,42,24.3,42.1z"/>
    <path fill="#E5C597" d="M24.3,42.1c-0.5,0.1-1,0.2-1.5,0.5c-0.1,0.1-0.2,0.1-0.3,0.2c-0.3,0.3-0.7,0.6-0.5,1.1
	c0.1,0.4,0.6,0.6,1,0.6c0.8,0.1,1.5-0.1,2.1-0.6c0.3-0.3,0.5-0.7,0.4-1.2C25.4,42.4,25,42,24.3,42.1z"/>
    <path fill="#F0D0AB" d="M39.6,33.1c-0.2,0-0.4,0-0.5,0.1c-0.4,0.4-0.8,0.3-1.1-0.2c-1.1,0.2-2.2,0.2-3.3,0.4c0.2,0.5,0.4,1,0.6,1.5
	c1.4,0.3,1.9,2,1,3.1c0.4,0.8,0.3,1.7,0.6,2.6c0.5,2,0.8,4,0.3,6.1c0,0.2,0,0.4-0.2,0.5c-0.1,0.2-0.1,0.4-0.2,0.5
	c0.5,0,1,0.1,1.4,0.1c0.5-0.2,1.1-0.4,1.6-0.7c1.7-1,2.9-2.4,3.3-4.4C43,42.6,43,42.5,43,42.4c-0.9-0.9-1.3-2.1-1.7-3.3
	c-0.5-1.6-0.9-3.2-1.4-4.8C39.8,33.8,39.7,33.4,39.6,33.1z M38,38.1c0.4-0.1,0.8-0.1,1.1,0c0.4,0.1,0.8,0.2,0.8,0.7
	c0.1,0.4-0.2,0.8-0.5,1c-0.3,0.3-0.7,0.2-1,0c-0.2-0.2-0.5-0.3-0.7-0.4c-0.3-0.2-0.8-0.2-0.8-0.6c0-0.4,0.6-0.5,0.9-0.7
	C38,38.2,38,38.2,38,38.1z"/>
    <path fill="#484346" d="M23.6,39.7c0.1,0.4,0.3,0.7,0.5,1c0.5,0.6,1,0.6,1.6,0.1c0.4-0.8,0.3-1.6-0.3-2.3c-0.3-0.4-0.6-0.6-1.1-0.4
	c-0.5,0.1-0.6,0.5-0.7,0.9C23.6,39.3,23.6,39.5,23.6,39.7z"/>
    <path fill="#E25520" d="M28.1,42.4L28.1,42.4c0.6-0.7,0.9-0.7,1.5-0.2c1.2,1,2.7,0.6,3.2-0.9c0.2-0.6,0.6-0.9,1.1-0.7
	c0.5,0.1,0.7,0.6,0.5,1.2C34,43,33.2,43.9,32,44.3c-0.1,0-0.2,0-0.3,0.1c-1.3,0.3-2.4-0.1-3.3-1C28,43.1,27.9,42.7,28.1,42.4z"/>
    <path fill="#484346" d="M36.2,38c0.9-1.1,0.4-2.8-1-3.1c-0.9,0.4-1.2,1.5-0.5,2.5c0.1,0.1,0.2,0.3,0.3,0.4
	C35.4,38.1,35.8,38.3,36.2,38z"/>
    <path fill="#E25520" d="M41.7,48.5c1.6-0.5,3.3-0.9,4.8-1.7c0.3-0.2,0.6-0.3,0.9-0.5c0.6-0.4,1.2-0.8,1.8-1.2c0-0.1,0.1-0.2,0.2-0.2
	c0.1-0.2,0.3-0.4,0.4-0.5c-1.1,0.2-2.2,0.3-3.3,0c-1.2-0.2-2.2-0.8-3.1-1.7c-0.1,0-0.2,0-0.2-0.1c-0.4,2-1.5,3.4-3.3,4.4
	c-0.5,0.3-1.1,0.5-1.6,0.7C39.4,47.9,40.5,48.2,41.7,48.5z"/>
    <path fill="#FAE0BD" d="M28.5,67.2c-0.5-1.9-1.1-3.8-1.7-5.7c-0.1-0.2-0.1-0.3,0.1-0.5c0.3-0.3,0.6-0.5,0.9-0.8
	c0.3-0.4,0.6-0.9,0.9-1.3c0.5-1,1.1-1.9,1.4-2.9c0.1-0.2,0.2-0.3,0.4-0.2c2,0.8,4.1,1.1,6.3,1.1c0.8-0.1,1.6-0.3,2.5-0.4
	c0.3-0.1,0.7-0.2,1-0.3c0.1,0.4,0.2,0.7,0.3,1.1c0.2,0.7,0.5,1.4,0.5,2.2c-0.3-0.4-0.6-0.7-1.2-0.5v-0.1V59
	c-0.4,0.5-0.4,1.1-0.1,1.7c0.2,0.4,0.4,0.7,0.9,0.7s0.6-0.4,0.7-0.8c0.3,0.5,0.2,1.1,0.4,1.6c-0.6,0.8-0.5,1.1,0.3,1.4
	c0.1,0.9,0.3,1.9,0.2,2.8c0.1,0.6,0.1,1.1-0.1,1.7c0.1,0.5-0.4,0.9-0.4,1.4c-1.9,0.5-3.8,1-5.8,1.6c-0.1,0-0.2,0-0.4,0
	c-0.6,0.2-1.3,0.3-2,0.5c-0.2,0-0.5-0.1-0.7-0.1c-1.4-0.1-2.5-0.7-3.3-1.8c-0.2-0.1-0.2-0.3-0.4-0.3C29.1,68.5,28.6,67.9,28.5,67.2z
	 M38.8,66.2L38.8,66.2L38.8,66.2z M35.2,65.9c0.9,0.9,2.3,1,3.3,0.3c0.1,0,0.1,0,0.2,0c0.3-0.3,0.7-0.6,0.9-1.1c0,0,0.2-0.4,0.2-0.5
	c0.1-0.4,0-0.8-0.4-0.9c-0.4-0.1-0.8,0.1-0.9,0.5c0,0.1-0.1,0.3-0.1,0.3c-0.3,0.4-0.7,0.7-1.1,0.8c-0.5,0-0.9-0.1-1.3-0.5
	c-0.2-0.2-0.4-0.2-0.6-0.2C34.8,64.9,34.7,65.4,35.2,65.9z M31.7,63.1c0.5,0.8,1.1,0.8,1.5,0c0-0.4,0-0.7-0.1-1.1
	c-0.2-0.4-0.4-0.7-0.9-0.7s-0.6,0.4-0.7,0.8C31.4,62.4,31.4,62.8,31.7,63.1z"/>
    <path fill="#484346" d="M33.2,63.1c0-0.4,0-0.7-0.1-1.1c-0.2-0.4-0.4-0.7-0.9-0.7s-0.6,0.4-0.7,0.8c0,0.4,0.1,0.7,0.3,1.1
	C32.1,63.9,32.7,63.9,33.2,63.1z"/>
    <path fill="#E5C597" d="M41.9,62.1c-0.6,0.8-0.5,1.1,0.3,1.4c0.6,0,1.1-0.1,1.6-0.5c0.3-0.2,0.5-0.5,0.4-0.8
	c-0.1-0.4-0.4-0.5-0.8-0.5C42.8,61.6,42.3,61.9,41.9,62.1z"/>
    <path fill="#484346" d="M41.3,59.5C41,59.1,40.6,58.7,40,59c-0.4,0.5-0.4,1.1-0.1,1.7c0.2,0.4,0.4,0.7,0.9,0.7s0.6-0.4,0.7-0.8
	C41.5,60.2,41.4,59.8,41.3,59.5z"/>
    <path fill="#FAE0BD" d="M50.9,56.6C50.9,56.6,51,56.6,50.9,56.6C51,56.7,50.9,56.6,50.9,56.6c-0.1-0.5-0.3-0.9-0.4-1.4
	c-0.1-0.2-0.1-0.4-0.2-0.6c0.7,0.4,1.5,0.8,2.2,1.2c-0.7-0.4-1.5-0.8-2.2-1.2c0-0.1-0.1-0.1-0.1-0.2c-0.2-0.6-0.3-1.3-0.5-1.9
	c1.1-0.3,2.2-0.6,3.3-0.9c0.8-0.2,1.7-0.5,2.5-0.7c0.7-0.2,1.4-0.4,2.1-0.6c0.3-0.1,0.7-0.2,1-0.3c1.5-0.4,2.9-0.8,4.4-1.2
	c0.4,1.1,0.8,2.2,1.1,3.4c-0.7,0.1-0.8,0.6-0.8,1.2c0.2,1,0.7,1.4,1.4,1.2c0.2,0.5,0.3,1.1,0.5,1.6c0.2,0.7,0.4,1.4,0.5,2.1
	c0.2,1.2,0.3,2.3-0.1,3.5c-0.1,0.4-0.3,0.8-0.8,0.9c0,0.1,0,0.2,0,0.3c-0.5,0.1-0.9,0.3-1.4,0.4c-0.1,0-0.2,0-0.3,0.1
	c-1.6,0.5-3.1,0.9-4.7,1.2c-1.2,0.3-2.3,0.1-3.4-0.4c-1.7-0.8-2.5-2.2-2.9-4C51.6,59,51.2,57.8,50.9,56.6z M55.4,54.5
	c-0.5,0.1-0.7,0.8-0.5,1.4c0.2,0.6,0.7,1.1,1.1,0.9c0.5-0.1,0.7-0.8,0.5-1.4C56.4,54.7,55.9,54.3,55.4,54.5z M63.4,57.6
	c0.1-0.4-0.1-0.7-0.5-0.8s-0.7,0.1-0.8,0.5c-0.1,0.3-0.2,0.6-0.4,0.8c-0.5,0.6-1.4,0.6-2,0.1c-0.3-0.3-0.6-0.4-1-0.2
	c-0.3,0.2-0.3,0.6-0.2,1c0.5,0.5,1.1,0.8,1.8,1c1.3,0,2.3-0.5,2.9-1.7C63.3,58,63.4,57.8,63.4,57.6z"/>
    <path fill="#484346" d="M63.2,53.2c0.2,1,0.7,1.4,1.4,1.2c0.6-0.9,0.3-1.9-0.7-2.4C63.3,52.2,63.2,52.7,63.2,53.2z"/>
    <path fill="#E25520" d="M60.3,59.8c1.3,0.1,2.3-0.5,2.9-1.7c0.1-0.2,0.1-0.4,0.2-0.6c0.1-0.4-0.1-0.7-0.5-0.8s-0.7,0.1-0.8,0.5
	c-0.1,0.3-0.2,0.6-0.4,0.8c-0.5,0.6-1.4,0.6-2,0.1c-0.3-0.3-0.6-0.4-1-0.2c-0.3,0.2-0.3,0.6-0.2,1C59,59.4,59.6,59.7,60.3,59.8z"/>
    <path fill="#E67E3D" d="M55.5,50.8c0.7-0.2,1.4-0.4,2.1-0.6c0.3-0.1,0.7-0.2,1-0.3c-0.2-0.6-0.4-1.3-0.6-1.9
	c-0.3-1.1-1.4-1.7-2.5-1.4c-0.6,0.2-1.1,0.3-1.7,0.5c-1.1,0.3-1.7,1.4-1.4,2.5c0.2,0.6,0.4,1.3,0.5,1.9C53.8,51.2,54.6,51,55.5,50.8
	z"/>
    <path fill="#E25520" d="M35.5,64.6c0.2,0,0.4,0,0.6,0.2c0.3,0.4,0.8,0.5,1.3,0.5c0.5-0.1,0.9-0.4,1.1-0.8v-0.1
	c0-0.1,0.1-0.1,0.1-0.2c0.1-0.5,0.5-0.7,0.9-0.5c0.5,0.1,0.6,0.5,0.4,0.9c-0.1,0.2-0.1,0.3-0.1,0.5h-0.1c-0.1,0.5-0.6,0.8-0.9,1.1
	c-0.1,0-0.1,0-0.2,0c-1.1,0.7-2.4,0.5-3.3-0.3C34.7,65.4,34.8,64.9,35.5,64.6z"/>
    <path fill="#E5C597" d="M38,38.1C37.9,38.1,37.9,38.1,38,38.1c-0.5,0.2-1,0.3-1,0.7c0,0.3,0.5,0.4,0.8,0.6c0.2,0.2,0.5,0.3,0.7,0.4
	c0.3,0.2,0.7,0.3,1,0s0.6-0.6,0.5-1c-0.1-0.5-0.5-0.6-0.8-0.7C38.8,38,38.4,38,38,38.1z"/>
    <path fill="#484346" d="M56.6,55.4c-0.2-0.7-0.7-1.1-1.2-0.9c-0.5,0.1-0.7,0.8-0.5,1.4c0.2,0.6,0.7,1.1,1.1,0.9
	C56.6,56.8,56.8,56.1,56.6,55.4z"/>
    <path fill="#AD5A38" d="M42.3,17.4c-0.4,0.4-0.7,0.9-1.1,1.3c-0.2,0.4-0.5,0.8-0.6,1.2c0.1,0.1,0.1,0.2,0.1,0.3
	c1.1,1.6,2,3.3,2.4,5.2c1-0.4,2-0.4,3.1,0.1c1.6,0.7,3.1,0.7,4.7,0c0.6-0.3,1-0.6,1.5-0.9c0.3-0.4,0.6-0.7,1-1.1
	c0.3-0.6,0.8-1.1,1.5-1.3c0,0,0-0.1,0.1-0.1c0-0.1-0.1-0.3-0.1-0.4c0.1-1.1,0-2.2-0.1-3.3c-0.1-1.4-0.6-2.7-1.6-3.8
	c-0.6-0.6-1.3-0.9-2.1-1.2c-0.4,0.1-0.8,0.2-1.2,0.2c-0.7,0.2-1.4,0.4-2.1,0.6c-1,0.4-2,0.8-2.9,1.3C44,16,43.1,16.7,42.3,17.4z"/>
    <path fill="#964E32" d="M51.1,13.3c0.8,0.3,1.5,0.6,2.1,1.2c1,1.1,1.5,2.3,1.6,3.8c0.1,1.1,0.1,2.2,0.1,3.3c0,0.1,0,0.3,0.1,0.4
	c1.9-0.6,3.4,0,4.5,1.6c0.3,0.4,0.5,0.8,0.9,1.2c0.7,0.7,1.4,1.4,2.4,1.5c0.5,0,1.1-0.1,1.6,0c-0.2-1.1-0.3-2.2-0.5-3.3
	c-0.1-0.6-0.2-1.3-0.3-1.9C63.4,20,63.1,19,62.8,18c-0.4-1.1-0.8-2.1-1.5-3c-1.2-1.7-3-2.4-5-2.3C54.6,12.6,52.8,12.8,51.1,13.3z"/>
    <path fill="#F0D0AB" d="M64.4,26.3c-0.5-0.1-1.1,0.1-1.6,0c-1-0.1-1.8-0.8-2.4-1.5c-0.3-0.4-0.6-0.8-0.9-1.2C58.4,22,57,21.4,55,22
	c0,0,0,0.1-0.1,0.1c0.4,0.9,0.7,1.7,1,2.6c0.4,0.7,0.4,1.5,0.9,2.2c0.1,0.4,0.2,0.8,0.3,1.2c1.2,0.6,1.5,1.8,0.8,2.9
	c0.2,0.7,0.4,1.4,0.5,2.2c0,0.4,0.3,0.8,0.1,1.2c0,0.1,0.1,0.3,0,0.4c0.4,0.4,0.6,0.9,0.8,1.5c0.2,0.8,0.2,0.8-0.5,1
	c0.2,1.2-0.1,2.3-0.4,3.4c0.9-0.2,1.9-0.6,2.9-0.6c0.4,0,0.8,0,1.1,0c0.5-0.3,0.9-0.8,1.3-1.2c0.3-0.4,0.5-0.9,0.8-1.3
	c0.5-1.2,0.7-2.4,0.5-3.7c-0.1-0.8-0.3-1.5-0.5-2.3c0-0.2-0.2-0.4,0.1-0.5c0.5-0.2,0.8-0.6,1.2-0.9C66.7,28.9,66.4,27.1,64.4,26.3z"
    />
    <path fill="#AD5A38" d="M36.2,20c-1.2,0.8-1.6,2-1.6,3.4c0,1.7,0.5,3.4,1.1,5c0.6,1.5,1.4,2.9,2.2,4.3C38,32.8,38,32.9,38,33
	c0.3,0.5,0.6,0.6,1.1,0.2c0.1-0.1,0.3-0.1,0.5-0.1c0.2-0.2,0.4-0.4,0.6-0.5c0.2-0.4,0.5-0.7,0.6-1.1c0.3-0.9,0.4-1.8,0.4-2.8
	c0-0.6,0.1-1.1,0.5-1.6c0.2-0.5,0.7-0.9,1.1-1.3c-1.5-2.4-3.1-4.7-5.7-6C36.7,19.8,36.5,19.9,36.2,20z"/>
    <path fill="#964E32" d="M36.9,19.7c2.7,1.3,4.2,3.7,5.7,6h0.1c0.1-0.1,0.3-0.2,0.4-0.3c-0.4-1.9-1.3-3.6-2.4-5.2
	c-0.1-0.1-0.1-0.2-0.1-0.3c-0.6-0.1-1.2-0.4-1.8-0.4C38.2,19.4,37.5,19.4,36.9,19.7z"/>
    <path fill="#AD5A38" d="M52.2,39.1c0.6-0.8,1.1-1.6,0.9-2.7c1,1.6,2.2,2.1,4,1.6c0.6-0.2,1.2-0.3,1.7-0.5c0.8-0.3,0.7-0.2,0.5-1
	c-0.1-0.6-0.4-1.1-0.8-1.5c-0.8-0.7-1.7-1.1-2.7-0.9c-0.4,0.1-0.8,0.2-1.1,0.3c-1.5,0.4-3,0.9-4.4,1.3c-0.9,0.2-1.6,0.7-2.2,1.5
	c-0.2,0.4-0.3,0.9-0.4,1.4c0,0.6,0.2,1.1,0.4,1.7c0.1,0.3,0.2,0.4,0.5,0.3c0.6-0.2,1.3-0.4,1.9-0.5C51.1,39.7,51.7,39.4,52.2,39.1z"
    />
    <path fill="#484346" d="M57.1,28.2c-0.7,0-1,0.3-1.1,1c-0.1,0.6,0.1,1.2,0.5,1.7s0.9,0.6,1.5,0.2C58.6,30,58.3,28.8,57.1,28.2z"/>
    <path fill="#FAE0BD" d="M39.9,34.2c-0.1-0.4-0.2-0.8-0.3-1.2c0.2-0.2,0.4-0.4,0.6-0.5c0.2-0.4,0.5-0.7,0.6-1.1
	c0.3-0.9,0.4-1.8,0.4-2.8c0-0.6,0.1-1.1,0.5-1.6c0.2-0.5,0.7-0.9,1.1-1.3h0.1c0.1-0.1,0.3-0.2,0.4-0.3c1-0.4,2-0.4,3.1,0.1
	c1.6,0.7,3.1,0.7,4.7,0c0.6-0.3,1-0.6,1.5-0.9c0.3-0.4,0.6-0.7,1-1.1c0.3-0.6,0.8-1.1,1.5-1.3c0.4,0.9,0.7,1.7,1,2.6
	c0.4,0.7,0.4,1.5,0.9,2.2c0.1,0.4,0.2,0.8,0.3,1.2c-0.7,0-1,0.3-1.1,1c-0.1,0.6,0.1,1.2,0.5,1.7s0.9,0.6,1.5,0.2
	c0.2,0.7,0.4,1.4,0.5,2.2c0,0.4,0.3,0.8,0.1,1.2c0,0.1,0.1,0.3,0,0.4c-0.8-0.7-1.7-1.1-2.7-0.9c-0.4,0.1-0.8,0.2-1.1,0.3
	c-1.5,0.4-3,0.9-4.4,1.3c-0.9,0.2-1.6,0.7-2.2,1.5c-0.2,0.4-0.3,0.9-0.4,1.4c0,0.6,0.2,1.1,0.4,1.7c0.1,0.3,0.2,0.4,0.5,0.3
	c0.6-0.2,1.3-0.4,1.9-0.5c0.6-0.1,1.2-0.5,1.8-0.8c0.6-0.8,1.1-1.6,0.9-2.7c1,1.6,2.2,2.1,4,1.6c0.6-0.2,1.2-0.3,1.7-0.5
	c0.2,1.2-0.1,2.3-0.4,3.4c-0.3,0.1-0.6,0.2-0.9,0.3c-0.5,0-0.8,0.3-1.3,0.4c-1.1-0.8-1.1-0.8,0,0c-0.7,0.3-1.4,0.5-2.1,0.6
	c-0.3,0.1-0.5,0.2-0.8,0.3c-1.4,0.3-2.7,0.9-3.6,2c-1.1,0.2-2.2,0.3-3.3,0c-1.2-0.2-2.2-0.8-3.1-1.7c-0.1,0-0.2,0-0.2-0.1
	c-0.1-0.1-0.1-0.2-0.1-0.3c-0.9-0.9-1.3-2.1-1.7-3.3C40.8,37.5,40.4,35.8,39.9,34.2z M46,34.2c0.5,0.4,1.1,0.2,1.3-0.4
	c0.3-0.7,0-2-0.7-2.4c-0.5-0.4-1.1-0.2-1.3,0.4c-0.2,0.4-0.2,0.9,0,1.3C45.4,33.6,45.6,34,46,34.2z"/>
    <path fill="#484346" d="M45.2,33.2c0.1,0.4,0.3,0.8,0.7,1.1c0.5,0.4,1.1,0.2,1.3-0.4c0.3-0.7,0-2-0.7-2.4c-0.5-0.4-1.1-0.2-1.3,0.4
	C45.1,32.3,45.1,32.7,45.2,33.2z"/>
    <path fill="#FFFFFF" d="M16.7,42.5c0,0,0.9,2,3.4,3.4s4.7,1.1,4.7,1.1s-2,0.9-3.4,3.4s-1.1,4.7-1.1,4.7s-0.9-2-3.4-3.4
	s-4.7-1.1-4.7-1.1s2-0.9,3.4-3.4S16.7,42.5,16.7,42.5z"/>
    <path fill="#FFFFFF" d="M61.6,66.1c0,0,0.6,1.3,2.2,2.2c1.6,0.9,3.1,0.7,3.1,0.7s-1.3,0.6-2.2,2.2c-0.9,1.6-0.7,3.1-0.7,3.1
	s-0.6-1.3-2.2-2.2c-1.6-0.9-3.1-0.7-3.1-0.7s1.3-0.6,2.2-2.2S61.6,66.1,61.6,66.1z"/>
</symbol>
  <symbol id="skin-7" viewBox="0 0 84.3 84.2">
<g>
	<path fill="#00C0F3" d="M30,82.3c22.2,6.7,45.6-5.8,52.4-28c6.7-22.2-5.8-45.6-28-52.4C32.1-4.8,8.7,7.7,2,29.9
		C-4.8,52.1,7.8,75.6,30,82.3z"/>
  <path fill="#FEA95C" d="M31.8,66.5l9.2,2.8H41L37,83c-1.5,0.1-2.9-0.1-4.3-0.5c-1.9-0.6-3.5-1.6-5-3.1l3.8-13
		C31.7,66.5,31.7,66.5,31.8,66.5z"/>
  <path fill="#FF9240" d="M40.9,69.7L40.9,69.7l-3.8,12.4c-0.8,0.1-1.6,0.1-2.4,0l4-13L40.9,69.7z"/>
  <path fill="#E3F3FF" d="M53.6,40.6l-1,3.4c-0.3,1.1-1.5,1.8-2.6,1.5l-0.9-0.3c-1.1-0.3-1.7-1.5-1.4-2.7l0.1-0.4L47.6,42
		c-0.3,1.1-1.5,1.8-2.6,1.5l-0.9-0.3c-1.1-0.3-1.7-1.5-1.4-2.7l0.4-1.2l-0.3-0.1c-0.3,1.1-1.5,1.8-2.6,1.5l-0.9-0.3
		c-1.1-0.3-1.7-1.5-1.4-2.7l0.2-0.6L37.8,37c-0.3,1.1-1.5,1.8-2.6,1.5l-0.9-0.3c-1.1-0.3-1.7-1.5-1.4-2.7l0.3-1.1L31.9,34l-0.8,2.5
		l2.7,5.4l19.3,5.8l2-6.7L53.6,40.6z"/>
  <path fill="#FDB97E" d="M52.2,37.7l-0.8-0.3c-1.2-0.3-2.4,0.3-2.7,1.5l0.6-2c0.3-1.2-0.3-2.4-1.5-2.8L47,33.8
		c-1.2-0.3-2.4,0.3-2.7,1.5l0.6-1.8c0.3-1.2-0.3-2.4-1.5-2.8l-0.8-0.3c-1.2-0.3-2.4,0.3-2.7,1.5l0.2-0.7c0.3-1.2-0.3-2.4-1.5-2.8
		l-0.8-0.3c-1.2-0.3-2.4,0.3-2.7,1.5L33,35.8c-0.3,1.2,0.3,2.4,1.5,2.8l0.8,0.3c1.2,0.3,2.4-0.3,2.7-1.5L37.8,38
		c-0.3,1.2,0.3,2.4,1.5,2.8l0.8,0.3c1.2,0.3,2.4-0.3,2.7-1.5l-0.3,1.1c-0.3,1.2,0.3,2.4,1.5,2.8l0.8,0.3c1.2,0.3,2.4-0.3,2.7-1.5
		l-0.1,0.4c-0.3,1.2,0.3,2.4,1.5,2.8l0.8,0.3c1.2,0.3,2.4-0.3,2.7-1.5l1.1-3.7C54.1,39.2,53.4,38,52.2,37.7z"/>
  <path fill="#E3F3FF" d="M17.7,29.8l-2.2-0.7c-0.6-0.2-1.3,0.3-1.5,1.2L12.9,34c-0.2,0.8,0,1.6,0.6,1.8l2.2,0.7L17.7,29.8z"/>
  <path fill="#E3F3FF" d="M71.5,46l-2.2-0.7l-2,6.7l2.2,0.7c0.6,0.2,1.3-0.3,1.5-1.2l1.1-3.7C72.4,47,72.1,46.2,71.5,46z"/>
  <path fill="#3C87D0" d="M66.2,38.1l-1-0.3l-5.5,18.3l1,0.3c2.7,0.8,5.3-0.1,5.9-2.1L70,43.1C70.6,41.1,68.9,38.9,66.2,38.1z"/>
  <path fill="#0268B4" d="M63.2,31.7L62,31.4c-2-0.6-4,0.5-4.6,2.4c0,0-7.3,24-6.7,22.1c-0.6,1.9,0.5,4,2.5,4.6l1.2,0.4
		c2,0.6,4-0.5,4.6-2.4l6.7-22.1C66.3,34.4,65.1,32.3,63.2,31.7z"/>
  <path fill="#13326F" d="M62,35.2l-6.7,22.1c-0.4,1.5-1.7,2.5-3.1,2.6c0.3,0.3,0.8,0.5,1.2,0.7l1.1,0.3c1.9,0.6,3.9-0.5,4.5-2.5
		l6.7-22.1c0.6-1.9-0.5-4-2.4-4.5l-1.1-0.3c-0.5-0.1-0.9-0.2-1.4-0.1C61.9,32.2,62.4,33.7,62,35.2z"/>
  <path fill="#3C87D0" d="M18.5,44.5l1,0.3L25,26.5l-1-0.3c-2.7-0.8-5.3,0.1-5.9,2.1l-3.4,11.2C14.2,41.5,15.9,43.7,18.5,44.5z"/>
  <path fill="#0268B4" d="M31.6,22.2l-1.2-0.4c-2-0.6-4,0.5-4.6,2.4c0,0-7.3,24-6.7,22.1c-0.6,1.9,0.5,4,2.5,4.6l1.2,0.4
		c2,0.6,4-0.5,4.6-2.4l6.7-22.1C34.7,24.8,33.5,22.7,31.6,22.2z"/>
  <path fill="#13326F" d="M30.4,25.6l-6.7,22.1c-0.4,1.5-1.7,2.5-3.1,2.6c0.3,0.3,0.8,0.5,1.2,0.7l1.1,0.3c1.9,0.6,3.9-0.5,4.5-2.5
		l6.7-22.1c0.6-1.9-0.5-4-2.4-4.5l-1.1-0.3c-0.5-0.1-0.9-0.2-1.4-0.1C30.3,22.6,30.8,24.2,30.4,25.6z"/>
  <path fill="#FEA95C" d="M49.6,43.2l1.1-3.7c0.3-0.9,1.1-1.6,2.1-1.6c-0.2-0.1-0.4-0.2-0.6-0.3l-0.8-0.3c-1.2-0.3-2.4,0.3-2.7,1.5
		l-1.1,3.7c-0.3,1.2,0.3,2.4,1.5,2.8l0.8,0.3c0.2,0.1,0.4,0.1,0.7,0.1C49.7,45.1,49.4,44.1,49.6,43.2z"/>
  <path fill="#FEA95C" d="M44.7,41.2l1.6-5.2c0.3-0.9,1.1-1.6,2.1-1.6c-0.2-0.1-0.4-0.2-0.6-0.3L47,33.8c-1.2-0.3-2.4,0.3-2.7,1.5
		l-1.6,5.2c-0.4,1.2,0.3,2.4,1.5,2.8l0.8,0.3c0.2,0.1,0.4,0.1,0.7,0.1C44.8,43.2,44.4,42.2,44.7,41.2z"/>
  <path fill="#FEA95C" d="M40,38.6l1.8-5.9c0.3-0.9,1.1-1.6,2.1-1.6c-0.2-0.1-0.4-0.2-0.6-0.3l-0.8-0.3c-1.2-0.3-2.4,0.3-2.7,1.5
		L38,37.9c-0.3,1.2,0.3,2.4,1.5,2.8l0.8,0.3c0.2,0.1,0.4,0.1,0.7,0.1C40.1,40.5,39.7,39.5,40,38.6z"/>
  <path fill="#FEA95C" d="M35.1,36.5l1.8-6.1c0.3-0.9,1.1-1.6,2.1-1.6c-0.2-0.1-0.4-0.2-0.6-0.3l-0.8-0.3c-1.2-0.3-2.4,0.3-2.7,1.5
		L33,35.8c-0.3,1.2,0.3,2.4,1.5,2.8l0.8,0.3C35.5,39,35.7,39,36,39C35.2,38.4,34.8,37.4,35.1,36.5z"/>
  <path fill="#FEA95C" d="M34.2,41.9L34.2,41.9l-3-5.6c-0.6-1.1-1.9-1.5-3-0.9l-1,0.5c-1.1,0.6-1.5,1.9-0.9,3l7,13.1l-0.4,1.4H33
		l12.2,3.7c0,0,0.1,0,0.1,0.1l0.2-0.6c2.1-0.6,3.9-2.3,4.6-4.6l1.4-4.8L34.2,41.9L34.2,41.9z"/>
  <path fill="#FDB97E" d="M40.3,52.2c-0.6-0.2-0.9-0.8-0.7-1.4c0.7-2.2-0.6-4.6-2.8-5.2c-0.6-0.2-0.9-0.8-0.7-1.4
		c0.2-0.6,0.8-0.9,1.4-0.7c3.4,1,5.3,4.6,4.3,8C41.5,52.1,40.9,52.4,40.3,52.2z"/>
  <path fill="#015A9A" d="M45.6,56.7c0.8,0.2,1.2,1.1,1,1.9l-3.2,10.5c-0.2,0.8-1.1,1.2-1.9,1L29,66.3c-0.8-0.2-1.2-1.1-1-1.9
		l3.2-10.5c0.2-0.8,1.1-1.2,1.9-1L45.6,56.7z"/>
  <path fill="#13326F" d="M40,68l3.2-10.5c0.2-0.8-0.2-1.6-0.9-1.9l3.4,1c0.8,0.2,1.2,1.1,0.9,1.9L43.4,69c-0.2,0.8-1.1,1.3-1.8,1
		l-3.4-1C38.9,69.3,39.7,68.8,40,68z"/>
  <path fill="#FFFFFF" d="M39.1,7.7c0,0-0.3,2,1,4.4s3.1,3.2,3.1,3.2s-2-0.3-4.4,1s-3.2,3.1-3.2,3.1s0.3-2-1-4.4s-3.1-3.2-3.1-3.2
		s2,0.3,4.4-1C38.2,9.6,39.1,7.7,39.1,7.7z"/>
  <path fill="#FFFFFF" d="M60.5,64.7c0,0-0.2,1.3,0.6,2.7c0.8,1.5,1.9,2,1.9,2s-1.3-0.2-2.7,0.6c-1.5,0.8-2,1.9-2,1.9
		s0.2-1.3-0.6-2.7c-0.8-1.5-1.9-2-1.9-2s1.3,0.2,2.7-0.6C60,65.8,60.5,64.7,60.5,64.7z"/>
</g>
</symbol>
  <symbol id="skin-8" viewBox="0 0 84.8 84.9">
<g>
	<circle fill="#8E40B7" cx="42.5" cy="42.7" r="42"/>
  <path fill="#0CAFE8" d="M46.3,74.7l-23.7-6.8c-1.5-0.4-2.7-1.8-2.9-3.4l-1.2-10.3l38.6,11l-6.5,8.1C49.5,74.6,47.8,75.1,46.3,74.7z
		"/>
  <path fill="#0B90D3" d="M51.8,63.8l-6.5,8.1c-1,1.3-2.7,1.8-4.3,1.4l4.8,1.4c1.5,0.4,3.3-0.1,4.3-1.4l6.5-8.1L51.8,63.8z"/>
  <path fill="#0B90D3" d="M24.4,80.3l3.4,1.7c0.4,0.2,4.9,1.5,5.3,1.6l8.6,1l3.1-10.4l-19.3-5.5L23.6,79
		C23.4,79.6,23.8,80.2,24.4,80.3z"/>
  <path fill="#007BC6" d="M24.9,72.8l18.7,5.4l1.4-3.8l-19.3-5.5L24.9,72.8z"/>
  <path fill="#9DEEFF" d="M34.4,67.4l0.1-0.4l-7.1-2l-0.9,3.2l0.5,0.1l0.6-0.9c0.3-0.4,0.6-0.6,1.1-0.5c0.1,0,0.3,0.1,0.6,0.2l3,0.8
		l-4.5,2.9l0.3,0.5c0.5-0.1,1,0,1.4,0.1c0.9,0.3,1.4,0.9,1.5,1.9c0.1,0.5,0,1-0.2,1.5c-0.6,1.9-1.8,2.6-3.6,2.1
		c-0.7-0.2-1-0.6-1-1.3c0-0.1,0-0.3,0.1-0.6c0.1-0.6,0.1-1.1-0.1-1.3c-0.1-0.2-0.3-0.3-0.6-0.3c-0.5-0.1-0.8,0-1.1,0.4
		c-0.1,0.1-0.1,0.2-0.1,0.3c-0.3,0.9,0.1,1.7,0.9,2.4c0.5,0.4,1.2,0.8,2,1c1.6,0.4,2.9,0.3,4-0.5c0.7-0.5,1.1-1.1,1.3-1.9
		c0.3-1,0.1-1.9-0.4-2.7c-0.5-0.6-1.1-1.1-2-1.3c-0.4-0.1-0.8-0.2-1.3-0.2L34.4,67.4z M40,68.4c-1.4-0.4-2.7-0.2-3.8,0.7
		c-0.9,0.7-1.5,1.8-1.9,3.1c-0.6,2.1-0.4,3.8,0.5,5c0.5,0.7,1.2,1.2,2.1,1.4c1.4,0.4,2.7,0.1,3.8-0.8c0.9-0.7,1.5-1.8,1.9-3.2
		c0.6-2.2,0.4-3.9-0.6-5.1C41.5,69,40.8,68.6,40,68.4z M37.1,78.2c-1.1-0.3-1.6-1.1-1.5-2.5c0-0.8,0.2-1.7,0.5-2.8
		c0.8-2.6,1.7-4,2.9-4.1c0.3,0,0.5,0,0.8,0.1c1,0.3,1.5,1,1.5,2.3c0,0.8-0.2,1.8-0.5,3c-0.8,2.7-1.7,4.1-2.9,4.2
		C37.6,78.3,37.4,78.3,37.1,78.2z"/>
</g>
    <path fill="#FFDE39" d="M60.3,22.9c-0.8,1.8-2.1,4.5-5.2,6.5c1.6-8.1-1.4-19.5-6.9-24.2c-4.5,8.3-16.8,13.1-21.5,23.1
	s-0.4,22,9.7,26.7c10,4.7,22,0.4,26.7-9.7C66.6,37.9,65,27.7,60.3,22.9z"/>
    <path fill="#FEC632" d="M34.8,51.6c-4.6-4.4-4.7-11.8-0.2-16.4c2.2-2.5,5-6.5,6-9c2.9,1,7.2,4.6,10.3,8.9s4.7,11.8,0.2,16.4
	C46.8,56.1,39.3,56.1,34.8,51.6z"/>
    <path fill="#F9A74E" d="M46.7,49.6c-1.2,3.1-5,4.3-8,2.9c-3-1.4-4.6-5.2-2.9-8c2.5-4.4,9.3-5.6,9.3-5.6S48.1,46,46.7,49.6z"/>
    <path fill="#FFFFFF" d="M57.2,65.3l-38.6-11l1.7-5.8c0.6-2.1,2.8-3.4,5-2.8l30.9,8.8c2.1,0.6,3.4,2.8,2.8,5L57.2,65.3z"/>
    <path opacity="0.2" fill="#382673" enable-background="new    " d="M56,54.5l-4.8-1.4c2.1,0.6,3.4,2.8,2.8,5l-1.7,5.8l4.8,1.4
	l1.7-5.8C59.4,57.4,58.1,55.1,56,54.5z"/>
    <path fill="#F9A74E" d="M44.4,21.4c1.1,0.3,2.2-0.3,2.5-1.4s-0.3-2.2-1.4-2.5c-1.1-0.3-2.2,0.3-2.5,1.4C42.8,20,43.4,21.1,44.4,21.4
	z"/>
    <path fill="#FEC632" d="M59.7,15.3c1.1,0.3,2.2-0.3,2.5-1.4s-0.3-2.2-1.4-2.5c-1.1-0.3-2.2,0.3-2.5,1.4S58.6,15,59.7,15.3z"/>
    <path fill="#FFFFFF" d="M23.5,13.3c0,0-0.3,1.9,0.9,4c1.2,2.2,2.9,2.9,2.9,2.9s-1.9-0.3-4,0.9c-2.2,1.2-2.9,2.9-2.9,2.9
	s0.3-1.9-0.9-4c-1.2-2.2-2.9-2.9-2.9-2.9s1.9,0.3,4-0.9S23.5,13.3,23.5,13.3z"/>
    <path fill="#FFFFFF" d="M49.5,55.1c0,0-0.2,1.4,0.7,3s2.2,2.2,2.2,2.2s-1.4-0.2-3,0.7s-2.2,2.2-2.2,2.2s0.2-1.4-0.7-3
	S44.3,58,44.3,58s1.4,0.2,3-0.7C49,56.3,49.5,55.1,49.5,55.1z"/>
    <path fill="none" stroke="#49B125" stroke-width="1.6" stroke-linecap="round" stroke-linejoin="round" stroke-miterlimit="10" d="
	M12,30.2c0,0-4.1,14.8,5,32.9"/>
    <path fill="#36CC29" d="M18.4,50.1c0,0.1,1.5,2.9,1,4.9c-0.6,2.1-3.6,2.8-3.6,2.7c0,0.1-2.2-3.3-1.3-5.5
	C15.3,50.2,18.5,50.1,18.4,50.1z"/>
    <path fill="#36CC29" d="M14.7,58.3c0,0-2.3,2.1-4.5,0.9c-2.3-1.3-3.1-5.8-3.1-5.8s2.6-1.7,4.6-0.3C13.7,54.5,14.6,58.2,14.7,58.3z"
    />
    <path fill="#36CC29" d="M17.1,43.2c0,0.1,1,3.1,0,5s-4.1,2-4.1,2c0,0.1-1.5-3.6-0.2-5.7C14.1,42.6,17.1,43.3,17.1,43.2z"/>
    <path fill="#36CC29" d="M11.9,50.6c0,0-2.7,1.6-4.6,0c-2-1.7-1.8-6.4-1.8-6.4s2.9-1.1,4.6,0.7C11.6,46.7,11.8,50.5,11.9,50.6z"/>
    <path fill="#36CC29" d="M17.2,36.1c0,0.1,0.3,3.3-1,4.9c-1.4,1.7-4.5,1.2-4.4,1.1c0,0.1-0.7-3.9,1-5.6C14.3,35,17.2,36.2,17.2,36.1z
	"/>
    <path fill="#36CC29" d="M13.9,25.7c0,0,1.6,3,1,5.4c-0.7,2.4-3.4,4.2-3.4,4.2s-2.3-2.6-1.6-5.5C10.5,27,13.9,25.7,13.9,25.7z"/>
    <path fill="#36CC29" d="M10.5,42.3c0,0-2.9,1.1-4.5-0.9c-1.6-2.1-0.5-6.7-0.5-6.7s3.1-0.5,4.4,1.6C11.1,38.4,10.5,42.3,10.5,42.3z"
    />
    <path fill="none" stroke="#49B125" stroke-width="1.6" stroke-linecap="round" stroke-linejoin="round" stroke-miterlimit="10" d="
	M75.3,48.3c0,0-4.4,14.7-21.6,25.3"/>
    <path fill="#36CC29" d="M67.1,70.6c0.1,0-3,3.4-5.7,3.3c-2.6-0.1-3.4-3.2-3.4-3.2c0.1,0,2.8-2.6,5.2-2.8
	C65.8,67.8,67.2,70.6,67.1,70.6z"/>
    <path fill="#36CC29" d="M57.6,69.7c0,0-2.1-2.1-1.6-4.3c0.6-2,3.4-3.6,3.4-3.6s2.6,1.7,2.2,4C61.1,68.2,57.5,69.8,57.6,69.7z"/>
    <path fill="#36CC29" d="M73.5,63.8c0.1,0-2.3,3.9-4.9,4.4c-2.5,0.4-3.9-2.5-3.9-2.4c0.1,0,2.2-3.2,4.6-3.8
	C71.6,61.3,73.5,63.7,73.5,63.8z"/>
    <path fill="#36CC29" d="M63.9,64.9c0,0-2.6-1.7-2.4-3.9c0.1-2.2,2.6-4.2,2.6-4.3c0,0,2.9,1.2,3,3.4C67.1,62.5,63.9,64.9,63.9,64.9z"
    />
    <path fill="#36CC29" d="M78.4,55.6c0.1,0-1.5,4.4-4,5.4c-2.4,0.9-4.3-1.6-4.3-1.6c0.1,0,1.6-3.5,3.7-4.7
	C76,53.5,78.4,55.6,78.4,55.6z"/>
    <path fill="#36CC29" d="M76.2,43.6c0,0,2.1,2.9,1.2,5.7c-1,2.8-4.3,3.8-4.3,3.8s-1.4-3-0.7-5.4C73.3,45.3,76.2,43.7,76.2,43.6z"/>
    <path fill="#36CC29" d="M69.1,58.7c0,0-2.9-1.2-3.2-3.3c-0.3-2.1,1.7-4.8,1.7-4.8s3.1,0.5,3.6,2.8C71.9,55.8,69.1,58.8,69.1,58.7z"
    />
</symbol>


  <!-- define view locations for each icon -->
  <view id="power" viewBox="0 0 30 30" />

  <!-- add icons to document and position to match their corresponding view -->
  <use xlink:href="#power" width="30" height="30" x="0" y="0"></use>
</svg>
